<svg width="640" height="212" viewBox="0 0 640 212" fill="none" xmlns="http://www.w3.org/2000/svg">
<g opacity="0.5" clip-path="url(#clip0_340_924)">
<path d="M0 35L104.5 84L238 24.5L385 87.5L520 18.5L640 77.5V212H0V35Z" fill="#82BF8C"/>
<path d="M667.453 117C623.097 117 600.098 92.5364 581.48 72.8591C563.409 53.7136 551.909 42.5454 527.815 42.5454C503.72 42.5454 492.221 53.7136 474.15 72.8591C455.531 92.5364 432.532 117 388.176 117C343.821 117 320.821 92.5364 302.203 72.8591C284.132 53.7136 272.632 42.5454 248.538 42.5454C224.444 42.5454 212.944 53.7136 194.873 72.8591C176.255 92.5364 153.803 117 108.9 117C64.5439 117 41.5447 92.5364 22.9262 72.8591C6.49816 53.7136 -5.00148 42.5454 -29.0959 42.5454C-41.1432 42.5454 -51 32.9727 -51 21.2727C-51 9.57271 -41.1432 0 -29.0959 0C15.2598 0 38.259 24.4636 56.8775 44.1409C74.9483 63.2864 86.448 74.4545 110.542 74.4545C134.637 74.4545 146.137 63.2864 164.207 44.1409C182.826 24.4636 205.825 0 250.181 0C294.537 0 317.536 24.4636 336.154 44.1409C354.225 63.2864 365.725 74.4545 389.819 74.4545C413.914 74.4545 425.413 63.2864 443.484 44.1409C462.103 24.4636 485.102 0 529.458 0C573.813 0 596.812 24.4636 615.431 44.1409C633.502 63.2864 645.002 74.4545 669.096 74.4545C681.143 74.4545 691 84.0273 691 95.7273C691 107.427 679.5 117 667.453 117Z" fill="#82BF8C"/>
</g>
<defs>
<clipPath id="clip0_340_924">
<rect width="640" height="212" fill="white"/>
</clipPath>
</defs>
</svg>
