<?xml version="1.0" encoding="utf-8"?><svg viewBox="0 0 33 25" xmlns="http://www.w3.org/2000/svg" xmlns:xlink="http://www.w3.org/1999/xlink"><style>:root>svg{display:none}:root>svg:target{display:block}</style><svg fill="none" viewBox="0 0 33 23" id="burger" xmlns="http://www.w3.org/2000/svg"><path d="M31.953 14c-1.973 0-2.996-1.046-3.824-1.886-.803-.819-1.315-1.296-2.387-1.296-1.071 0-1.583.478-2.386 1.296-.828.84-1.851 1.886-3.824 1.886-1.973 0-2.995-1.046-3.823-1.886-.804-.819-1.316-1.296-2.387-1.296-1.072 0-1.583.478-2.387 1.296-.828.84-1.827 1.886-3.824 1.886-1.972 0-2.995-1.046-3.823-1.886-.73-.819-1.242-1.296-2.314-1.296-.536 0-.974-.409-.974-.909S.438 9 .974 9c1.973 0 2.996 1.046 3.824 1.886.803.819 1.315 1.296 2.386 1.296 1.072 0 1.584-.478 2.387-1.296C10.4 10.046 11.422 9 13.395 9c1.973 0 2.995 1.046 3.823 1.886.804.819 1.316 1.296 2.387 1.296 1.072 0 1.583-.478 2.387-1.296.828-.84 1.85-1.886 3.823-1.886 1.973 0 2.996 1.046 3.824 1.886.804.819 1.315 1.296 2.387 1.296.536 0 .974.409.974.909s-.511.909-1.047.909zM31.953 5c-1.973 0-2.996-1.045-3.824-1.886-.803-.819-1.315-1.296-2.387-1.296-1.071 0-1.583.477-2.386 1.296C22.528 3.954 21.505 5 19.532 5c-1.973 0-2.995-1.045-3.823-1.886-.804-.819-1.316-1.296-2.387-1.296-1.072 0-1.583.477-2.387 1.296C10.107 3.954 9.108 5 7.111 5 5.14 5 4.116 3.955 3.288 3.114c-.73-.819-1.242-1.296-2.314-1.296C.438 1.818 0 1.41 0 .91S.438 0 .974 0C2.947 0 3.97 1.045 4.798 1.886c.803.819 1.315 1.296 2.386 1.296 1.072 0 1.584-.477 2.387-1.296C10.4 1.046 11.422 0 13.395 0c1.973 0 2.995 1.045 3.823 1.886.804.819 1.316 1.296 2.387 1.296 1.072 0 1.583-.477 2.387-1.296C22.82 1.046 23.842 0 25.815 0c1.973 0 2.996 1.045 3.824 1.886.804.819 1.315 1.296 2.387 1.296.536 0 .974.409.974.909S32.489 5 31.953 5zM31.953 23c-1.973 0-2.996-1.046-3.824-1.886-.803-.819-1.315-1.296-2.387-1.296-1.071 0-1.583.477-2.386 1.296-.828.84-1.851 1.886-3.824 1.886-1.973 0-2.995-1.046-3.823-1.886-.804-.819-1.316-1.296-2.387-1.296-1.072 0-1.583.477-2.387 1.296-.828.84-1.827 1.886-3.824 1.886-1.972 0-2.995-1.046-3.823-1.886-.73-.819-1.242-1.296-2.314-1.296-.536 0-.974-.409-.974-.909S.438 18 .974 18c1.973 0 2.996 1.046 3.824 1.886.803.819 1.315 1.296 2.386 1.296 1.072 0 1.584-.477 2.387-1.296.828-.84 1.851-1.886 3.824-1.886 1.973 0 2.995 1.046 3.823 1.886.804.819 1.316 1.296 2.387 1.296 1.072 0 1.583-.477 2.387-1.296.828-.84 1.85-1.886 3.823-1.886 1.973 0 2.996 1.046 3.824 1.886.804.819 1.315 1.296 2.387 1.296.536 0 .974.409.974.909s-.511.909-1.047.909z" fill="#12919C"/></svg><svg viewBox="0 0 24 24" id="cacke" xmlns="http://www.w3.org/2000/svg"><path d="M22.5 22.5V24H0v-1.5h1.5v-6.75c0-.516.098-1 .293-1.453a3.76 3.76 0 011.992-1.992c.461-.203.95-.305 1.465-.305h5.25V7.875c0-.07.027-.129.082-.176a.676.676 0 01.211-.117c.086-.031.172-.05.258-.059.086-.007.152-.015.199-.023.047 0 .113.004.2.012a.915.915 0 01.457.176c.062.046.093.109.093.187V12h5.25a3.664 3.664 0 012.637 1.102c.336.343.605.742.808 1.195.203.453.305.937.305 1.453v6.75h1.5zm-17.25-9a2.219 2.219 0 00-1.5.574c-.195.18-.36.39-.492.633a2.112 2.112 0 00-.246.797 2.969 2.969 0 002.238.996c.516 0 .96-.102 1.336-.305.375-.203.73-.5 1.066-.89.086-.094.172-.168.258-.223A.625.625 0 018.25 15a.6.6 0 01.328.082c.086.055.176.129.27.223.328.383.68.675 1.054.879.375.203.825.308 1.348.316.516 0 .96-.102 1.336-.305.375-.203.73-.5 1.066-.89a1.31 1.31 0 01.258-.223.625.625 0 01.34-.082.6.6 0 01.328.082c.086.055.176.129.27.223.328.383.68.675 1.054.879.375.203.825.308 1.348.316.43 0 .836-.086 1.219-.258a3.128 3.128 0 001.02-.738 2.235 2.235 0 00-.235-.785 2.32 2.32 0 00-.492-.645 2.036 2.036 0 00-.692-.422 2.59 2.59 0 00-.82-.152h-12zM3 22.5h16.5v-5.098a6.444 6.444 0 01-1.09.434 4.469 4.469 0 01-2.765-.117 4.261 4.261 0 01-1.395-.856 4.36 4.36 0 01-1.395.844A4.792 4.792 0 0111.25 18a4.6 4.6 0 01-1.605-.281 4.26 4.26 0 01-1.395-.856 4.36 4.36 0 01-1.395.844A4.792 4.792 0 015.25 18c-.422 0-.809-.05-1.16-.152A5.933 5.933 0 013 17.402V22.5zM11.25 6a.72.72 0 01-.527-.223.72.72 0 01-.223-.527.99.99 0 01.094-.363c.062-.149.133-.305.21-.469.079-.164.16-.32.247-.469.086-.148.152-.265.199-.351.047.086.11.203.188.351l.246.469c.086.164.16.32.222.469A.99.99 0 0112 5.25a.72.72 0 01-.223.527.72.72 0 01-.527.223z"/></svg><svg viewBox="0 0 24 24" id="cinema" xmlns="http://www.w3.org/2000/svg"><path d="M24 18.094l-6-3V18H0V6h18v2.906l6-3v12.188zM16.5 7.5h-15v9h15v-9zm6 .832L18 10.594v2.812l4.5 2.262V8.332z"/></svg><svg viewBox="0 0 24 24" id="contacts" xmlns="http://www.w3.org/2000/svg"><path d="M24 4.5v15H0v-15h24zM1.676 6L12 11.168 22.324 6H1.676zM22.5 18V7.594L12 12.832 1.5 7.594V18h21z"/></svg><svg viewBox="0 0 24 24" id="eat" xmlns="http://www.w3.org/2000/svg"><path d="M11.25 0a.72.72 0 01.527.223A.72.72 0 0112 .75V9c0 .414-.078.8-.234 1.16a3.012 3.012 0 01-1.605 1.594A3.086 3.086 0 019 12v11.25a.72.72 0 01-.223.527.72.72 0 01-.527.223.72.72 0 01-.527-.223.72.72 0 01-.223-.527V12c-.414 0-.8-.078-1.16-.234A3.049 3.049 0 014.5 9V.75a.72.72 0 01.223-.527A.72.72 0 015.25 0a.72.72 0 01.527.223A.72.72 0 016 .75V9c0 .21.04.406.117.586.078.18.184.336.317.469.132.133.293.242.48.328.188.086.383.125.586.117V.75a.72.72 0 01.223-.527A.72.72 0 018.25 0a.72.72 0 01.527.223A.72.72 0 019 .75v9.75c.21 0 .406-.04.586-.117.18-.078.336-.184.469-.317.133-.132.242-.293.328-.48A1.27 1.27 0 0010.5 9V.75a.72.72 0 01.223-.527A.72.72 0 0111.25 0zm8.25 0v23.25a.72.72 0 01-.223.527.72.72 0 01-.527.223.72.72 0 01-.527-.223.72.72 0 01-.223-.527V16.5c-.29 0-.602.004-.938.012-.335.008-.668.004-.996-.012a4.916 4.916 0 01-.96-.14 2.453 2.453 0 01-.82-.364 1.853 1.853 0 01-.575-.668c-.149-.281-.219-.64-.211-1.078v-9c0-.727.137-1.406.41-2.04A5.304 5.304 0 0116.7.423 5.258 5.258 0 0118.75 0h.75zM18 1.57a3.476 3.476 0 00-1.195.47c-.36.226-.676.507-.95.843-.273.336-.484.699-.632 1.09-.149.39-.223.816-.223 1.277v9a.72.72 0 00.223.527.72.72 0 00.527.223H18V1.57z"/></svg><svg viewBox="0 0 24 24" id="events" xmlns="http://www.w3.org/2000/svg"><g clip-path="url(#fclip0_340_1111)"><path d="M24 1.5v12h-1.5v-6h-21V21H12v1.5H0v-21h4.5V0H6v1.5h12V0h1.5v1.5H24zM22.5 6V3h-3v1.5H18V3H6v1.5H4.5V3h-3v3h21zm.223 9.973l1.054 1.054-6.527 6.54-3.152-3.165 1.054-1.054 2.098 2.086 5.473-5.461z"/></g><defs><clipPath id="fclip0_340_1111"><path fill="#fff" d="M0 0h24v24H0z"/></clipPath></defs></svg><svg fill="none" viewBox="0 0 20 21" id="facebook" xmlns="http://www.w3.org/2000/svg"><g clip-path="url(#gclip0_340_1656)"><path d="M15 .504L12.404.5C9.492.5 7.61 2.432 7.61 5.422v2.27H5a.408.408 0 00-.408.407v3.288c0 .226.183.408.408.408H7.61v8.297c0 .226.182.408.408.408h3.402a.408.408 0 00.408-.408v-8.297h3.049a.408.408 0 00.408-.408V8.1a.408.408 0 00-.407-.408h-3.05V5.768c0-.925.22-1.394 1.425-1.394l1.747-.001a.408.408 0 00.407-.408V.912A.408.408 0 0015 .504z" fill="#111"/></g><defs><clipPath id="gclip0_340_1656"><path fill="#fff" transform="translate(0 .5)" d="M0 0h20v20H0z"/></clipPath></defs></svg><svg viewBox="0 0 24 24" id="fitness" xmlns="http://www.w3.org/2000/svg"><g clip-path="url(#hclip0_340_1101)"><path d="M22.066 7.5l1.5 1.5-3.316 3.305-3.75-3.739L8.566 16.5l3.739 3.75L9 23.566l-1.5-1.5-1.875 1.864-2.25-2.239c-.078.07-.156.153-.234.247a2.01 2.01 0 01-.258.257 2.512 2.512 0 01-.293.211.635.635 0 01-.34.094.72.72 0 01-.527-.223.72.72 0 01-.141-.855c.055-.102.125-.2.211-.293.086-.094.176-.18.27-.258a1.83 1.83 0 00.246-.246L.07 18.375 1.934 16.5.434 15l3.316-3.305 3.75 3.739L15.434 7.5l-3.739-3.75L15 .434l1.5 1.5L18.375.07l2.25 2.239c.078-.07.156-.153.234-.247.078-.093.164-.18.258-.257.094-.078.192-.149.293-.211a.635.635 0 01.34-.094.72.72 0 01.527.223.72.72 0 01.141.855c-.055.102-.125.2-.211.293-.086.094-.176.18-.27.258-.093.078-.175.16-.246.246l2.239 2.25L22.066 7.5zM6.434 21L3 17.566l-.809.809 3.434 3.434.809-.809zm3.761-.75L3.75 13.805 2.566 15 9 21.434l1.195-1.184zM17.566 3L21 6.434l.809-.809-3.434-3.434-.809.809zm3.868 6L15 2.566 13.805 3.75l6.445 6.445L21.434 9z"/></g><defs><clipPath id="hclip0_340_1101"><path fill="#fff" d="M0 0h24v24H0z"/></clipPath></defs></svg><svg fill="none" viewBox="0 0 24 25" id="floors" xmlns="http://www.w3.org/2000/svg"><path d="M19.5 10.51l4.5 2.25-4.5 2.25 4.5 2.25-12 6-12-6 4.5-2.25L0 12.76l4.5-2.25L0 8.26l12-6 12 6-4.5 2.25zM3.352 8.26L12 12.585l8.648-4.325L12 3.936 3.352 8.26zm17.296 9l-2.824-1.406L12 18.76l-5.824-2.906-2.824 1.406L12 21.584l8.648-4.324zM12 17.084l8.648-4.324-2.824-1.406L12 14.26l-5.824-2.906-2.824 1.406L12 17.084z" fill="#000"/></svg><svg fill="none" viewBox="0 0 20 21" id="instagram" xmlns="http://www.w3.org/2000/svg"><g clip-path="url(#jclip0_340_1641)" fill="#111"><path d="M13.75.5h-7.5A6.25 6.25 0 000 6.75v7.5a6.25 6.25 0 006.25 6.25h7.5A6.25 6.25 0 0020 14.25v-7.5A6.25 6.25 0 0013.75.5zm4.375 13.75a4.38 4.38 0 01-4.375 4.375h-7.5a4.38 4.38 0 01-4.375-4.375v-7.5A4.38 4.38 0 016.25 2.375h7.5a4.38 4.38 0 014.375 4.375v7.5z"/><path d="M10 5.5a5 5 0 100 10 5 5 0 000-10zm0 8.125A3.13 3.13 0 016.875 10.5 3.129 3.129 0 0110 7.375a3.129 3.129 0 013.125 3.125A3.13 3.13 0 0110 13.625zM15.375 5.791a.666.666 0 100-1.332.666.666 0 000 1.332z"/></g><defs><clipPath id="jclip0_340_1641"><path fill="#fff" transform="translate(0 .5)" d="M0 0h20v20H0z"/></clipPath></defs></svg><svg viewBox="0 0 24 24" id="kids" xmlns="http://www.w3.org/2000/svg"><g clip-path="url(#kclip0_340_1107)"><path d="M12 0c1.102 0 2.164.14 3.188.422a11.82 11.82 0 012.87 1.207c.891.523 1.7 1.148 2.426 1.875.727.726 1.352 1.539 1.875 2.437a12.084 12.084 0 011.22 9.246 11.82 11.82 0 01-1.208 2.872c-.523.89-1.148 1.699-1.875 2.425a11.916 11.916 0 01-2.437 1.875 12.084 12.084 0 01-9.247 1.22 11.82 11.82 0 01-2.87-1.208 12.05 12.05 0 01-2.426-1.875A11.912 11.912 0 011.64 18.06a12.137 12.137 0 01-1.207-2.86 12.168 12.168 0 01-.012-6.386A11.82 11.82 0 011.629 5.94c.523-.89 1.148-1.699 1.875-2.425A11.91 11.91 0 015.94 1.64 12.137 12.137 0 018.801.434 12.168 12.168 0 0112 0zm0 22.5c.96 0 1.887-.125 2.777-.375.891-.25 1.727-.602 2.508-1.055a10.136 10.136 0 002.133-1.652 10.938 10.938 0 001.64-2.121c.454-.766.81-1.602 1.067-2.508A9.847 9.847 0 0022.5 12c0-.96-.125-1.887-.375-2.777-.25-.891-.602-1.727-1.055-2.508a10.133 10.133 0 00-1.652-2.133 10.938 10.938 0 00-2.121-1.64 10.588 10.588 0 00-2.508-1.067A9.846 9.846 0 0012 1.5c-.96 0-1.887.125-2.777.375-.891.25-1.727.602-2.508 1.055a10.133 10.133 0 00-2.133 1.652 10.936 10.936 0 00-1.64 2.121 10.586 10.586 0 00-1.067 2.508A9.846 9.846 0 001.5 12c0 .96.125 1.887.375 2.777.25.891.602 1.727 1.055 2.508a10.136 10.136 0 001.652 2.133c.648.64 1.356 1.188 2.121 1.64.766.454 1.602.81 2.508 1.067A9.847 9.847 0 0012 22.5zM7.5 6c.21 0 .406.04.586.117.18.078.336.184.469.317.133.132.242.293.328.48.086.188.125.383.117.586H6c0-.21.04-.406.117-.586.078-.18.184-.336.317-.469.132-.133.293-.242.48-.328A1.27 1.27 0 017.5 6zm9 0c.21 0 .406.04.586.117.18.078.336.184.469.317.133.132.242.293.328.48.086.188.125.383.117.586h-3c0-.21.04-.406.117-.586.078-.18.184-.336.317-.469.132-.133.293-.242.48-.328A1.27 1.27 0 0116.5 6zm.75 3a2.259 2.259 0 011.594.656 2.258 2.258 0 01.656 1.594V12c0 1.04-.195 2.012-.586 2.918a7.707 7.707 0 01-1.605 2.39 7.312 7.312 0 01-2.38 1.606A7.6 7.6 0 0112 19.5a7.293 7.293 0 01-2.918-.586 7.706 7.706 0 01-2.39-1.605 7.31 7.31 0 01-1.606-2.38A7.6 7.6 0 014.5 12c0-.375.031-.742.094-1.102.062-.359.176-.68.34-.96a1.89 1.89 0 01.68-.68C5.901 9.086 6.28 9 6.75 9c.578 0 1.082.078 1.512.234.43.157.836.329 1.218.516.383.188.774.36 1.172.516.399.156.848.234 1.348.234.5 0 .945-.078 1.336-.234.39-.157.781-.329 1.172-.516.39-.188.8-.36 1.23-.516.43-.156.934-.234 1.512-.234zm.75 2.25a.72.72 0 00-.223-.527.72.72 0 00-.527-.223c-.336 0-.645.035-.926.105a4.71 4.71 0 00-.808.282c-.258.117-.516.238-.774.363s-.523.246-.797.363c-.273.117-.57.207-.89.27-.32.062-.672.101-1.055.117-.383 0-.73-.035-1.043-.105a5.382 5.382 0 01-.89-.282 12.745 12.745 0 01-.797-.363 17.76 17.76 0 00-.774-.363 4.382 4.382 0 00-.82-.27 5.438 5.438 0 00-.926-.117.72.72 0 00-.527.223.72.72 0 00-.223.527V12a5.922 5.922 0 001.758 4.23 6.334 6.334 0 001.91 1.29c.727.32 1.504.48 2.332.48a5.92 5.92 0 004.23-1.758 6.334 6.334 0 001.29-1.91c.32-.727.48-1.504.48-2.332v-.75z"/></g><defs><clipPath id="kclip0_340_1107"><path fill="#fff" d="M0 0h24v24H0z"/></clipPath></defs></svg><svg fill="none" viewBox="0 0 20 21" id="odnoklassniki" xmlns="http://www.w3.org/2000/svg"><g clip-path="url(#lclip0_340_1651)" fill="#111"><path d="M9.016 14.587c-1.55-.161-2.949-.543-4.145-1.48-.149-.116-.302-.228-.438-.358-.524-.503-.576-1.08-.162-1.673.355-.508.95-.644 1.569-.353.12.057.234.127.343.203 2.23 1.533 5.295 1.575 7.534.07.222-.17.459-.31.734-.38.534-.137 1.032.059 1.32.526.327.534.322 1.055-.081 1.47-.62.635-1.364 1.095-2.191 1.416-.783.303-1.64.456-2.488.557.128.14.189.208.269.289 1.151 1.157 2.308 2.31 3.456 3.47.39.395.473.886.257 1.345-.235.503-.762.834-1.279.799-.327-.023-.583-.186-.81-.415-.869-.874-1.754-1.732-2.606-2.623-.247-.26-.367-.21-.585.014-.875.9-1.763 1.787-2.657 2.668-.401.396-.879.467-1.344.24-.495-.239-.81-.744-.786-1.252.017-.343.186-.605.422-.84 1.14-1.138 2.276-2.28 3.413-3.42.075-.075.145-.156.255-.273z"/><path d="M9.96 10.623c-2.766-.01-5.034-2.302-5.018-5.073A5.07 5.07 0 0110.022.5c2.798.008 5.045 2.297 5.03 5.127-.014 2.765-2.297 5.006-5.092 4.996zm2.514-5.066a2.465 2.465 0 00-2.473-2.472 2.469 2.469 0 00-2.479 2.502 2.465 2.465 0 002.492 2.453 2.46 2.46 0 002.46-2.483z"/></g><defs><clipPath id="lclip0_340_1651"><path fill="#fff" transform="translate(0 .5)" d="M0 0h20v20H0z"/></clipPath></defs></svg><svg fill="none" viewBox="0 0 21 21" id="parking" xmlns="http://www.w3.org/2000/svg"><path d="M6.76 3.36H9.9c1.733 0 3.013.307 3.84.92.84.613 1.26 1.647 1.26 3.1 0 .8-.153 1.467-.46 2a4.052 4.052 0 01-1.16 1.3c-.453.32-.947.553-1.48.7-.533.133-1.027.2-1.48.2H8.44V17H6.76V3.36zm1.68 6.72h1.84c.453 0 .86-.04 1.22-.12.373-.093.693-.24.96-.44a2.1 2.1 0 00.62-.84c.147-.36.22-.807.22-1.34s-.08-.96-.24-1.28a1.577 1.577 0 00-.68-.76c-.293-.173-.667-.287-1.12-.34-.453-.067-.98-.1-1.58-.1H8.44v5.22z" fill="#111"/><path stroke="#000" d="M.5.5h20v20H.5z"/></svg><svg fill="none" viewBox="0 0 23 25" id="route" xmlns="http://www.w3.org/2000/svg"><path d="M22.5 24.26H0l4.5-13.5h6V7.69a3.845 3.845 0 01-2.156-1.3 3.626 3.626 0 01-.621-1.102A3.758 3.758 0 017.5 4.01c0-.515.098-1 .293-1.453A3.76 3.76 0 019.785.565c.461-.203.95-.305 1.465-.305a3.664 3.664 0 012.637 1.102c.336.344.605.742.808 1.195.203.453.305.938.305 1.453 0 .446-.074.871-.223 1.278-.148.406-.355.77-.62 1.09a4.06 4.06 0 01-.95.831c-.367.235-.77.395-1.207.48v3.071h6l4.5 13.5zM9 4.01a2.257 2.257 0 00.656 1.594 2.258 2.258 0 003.188 0 2.258 2.258 0 000-3.188 2.259 2.259 0 00-3.188 0A2.257 2.257 0 009 4.01zM2.086 22.76h18.328l-3.492-10.5H12v5.625c0 .07-.027.13-.082.176a.674.674 0 01-.211.117c-.086.031-.168.051-.246.059a8.192 8.192 0 00-.211.023c-.055 0-.121-.004-.2-.012a1.016 1.016 0 01-.245-.058.675.675 0 01-.211-.117.272.272 0 01-.094-.188V12.26H5.578l-3.492 10.5z" fill="#111"/></svg><svg fill="none" viewBox="0 0 20 20" id="search" xmlns="http://www.w3.org/2000/svg"><g clip-path="url(#oclip0_340_1778)"><path d="M13.125 0a6.792 6.792 0 013.467.938c.508.299.97.657 1.387 1.074.416.416.777.882 1.084 1.396.306.515.537 1.061.693 1.64.156.58.238 1.189.244 1.827a6.794 6.794 0 01-.938 3.467c-.299.508-.657.97-1.074 1.386a7.1 7.1 0 01-1.396 1.085 6.509 6.509 0 01-1.64.693 7.275 7.275 0 01-1.827.244 6.696 6.696 0 01-2.334-.41 7.172 7.172 0 01-2.06-1.182l-7.667 7.656A.6.6 0 01.625 20a.6.6 0 01-.44-.186.6.6 0 01-.185-.439.6.6 0 01.186-.44l7.656-7.665A7.037 7.037 0 016.66 9.219a6.725 6.725 0 01-.41-2.344 6.792 6.792 0 01.938-3.467c.299-.508.657-.97 1.074-1.387A7.1 7.1 0 019.658.938a6.507 6.507 0 011.64-.694A7.273 7.273 0 0113.126 0zm0 12.5a5.563 5.563 0 003.975-1.65 5.794 5.794 0 001.2-1.788 5.567 5.567 0 00.45-2.187A5.563 5.563 0 0017.1 2.9a5.793 5.793 0 00-1.787-1.2 5.568 5.568 0 00-2.188-.45A5.564 5.564 0 009.15 2.9a5.794 5.794 0 00-1.2 1.788 5.568 5.568 0 00-.45 2.187 5.564 5.564 0 001.65 3.975c.515.507 1.11.908 1.787 1.2a5.567 5.567 0 002.188.45z" fill="#111"/></g><defs><clipPath id="oclip0_340_1778"><path fill="#fff" d="M0 0h20v20H0z"/></clipPath></defs></svg><svg viewBox="0 0 24 24" id="services" xmlns="http://www.w3.org/2000/svg"><g clip-path="url(#pclip0_340_1103)"><path d="M18.75 9.75c-.21 0-.406-.04-.586-.117a1.503 1.503 0 01-.469-.317 1.634 1.634 0 01-.328-.48 1.27 1.27 0 01-.117-.586c0-.21.04-.406.117-.586.078-.18.184-.336.317-.469.132-.133.293-.242.48-.328a1.27 1.27 0 01.586-.117c.21 0 .406.04.586.117.18.078.336.184.469.317.133.132.242.293.328.48.086.188.125.383.117.586 0 .21-.04.406-.117.586-.078.18-.184.336-.317.469a1.634 1.634 0 01-.48.328 1.27 1.27 0 01-.586.117zM21 3h3v10.066l-10.5 10.5-6.516-6.539C4.813 14.847 2.63 12.672.434 10.5L10.934 0H21v3zm-9.434-1.5l-9 9L4.5 12.434 13.934 3H19.5V1.5h-7.934zM22.5 12.434V4.5h-7.934l-9 9 7.934 7.934 9-9z"/></g><defs><clipPath id="pclip0_340_1103"><path fill="#fff" d="M0 0h24v24H0z"/></clipPath></defs></svg><svg viewBox="0 0 24 24" id="shop" xmlns="http://www.w3.org/2000/svg"><path d="M21 6v15c0 .414-.078.8-.234 1.16a3.012 3.012 0 01-1.605 1.594A3.086 3.086 0 0118 24H4.5c-.414 0-.8-.078-1.16-.234A3.049 3.049 0 011.5 21V6h3V4.5a4.42 4.42 0 011.324-3.176c.414-.406.89-.726 1.43-.96A4.474 4.474 0 019 0c.813 0 1.566.203 2.262.61A4.363 4.363 0 0113.5 0a4.42 4.42 0 013.176 1.324c.406.414.726.89.96 1.43.235.539.356 1.121.364 1.746V6h3zm-4.5-1.5c0-.406-.078-.793-.234-1.16a2.878 2.878 0 00-.645-.95 3.293 3.293 0 00-.96-.644A2.813 2.813 0 0013.5 1.5c-.352 0-.684.059-.996.176.226.281.406.558.539.832.133.273.23.547.293.82.062.274.105.55.129.832.023.281.035.582.035.902V6h3V4.5zM6 6h6V4.5c0-.406-.078-.793-.234-1.16a2.878 2.878 0 00-.645-.95 3.293 3.293 0 00-.96-.644A2.813 2.813 0 009 1.5c-.414 0-.8.078-1.16.234A3.012 3.012 0 006.246 3.34 3.087 3.087 0 006 4.5V6zm9.398 16.5A2.995 2.995 0 0115 21V7.5H3V21c0 .21.04.406.117.586.078.18.184.336.317.469.132.133.293.242.48.328.188.086.383.125.586.117h10.898zm4.102-15h-3V21c0 .21.04.406.117.586.078.18.184.336.317.469.132.133.293.242.48.328.188.086.383.125.586.117.21 0 .406-.04.586-.117.18-.078.336-.184.469-.317.133-.132.242-.293.328-.48A1.27 1.27 0 0019.5 21V7.5z"/></svg><svg viewBox="0 0 24 25" id="time" xmlns="http://www.w3.org/2000/svg"><g clip-path="url(#rclip0_345_1134)"><path d="M12 24.76c-.969 0-1.898-.125-2.79-.375-.89-.25-1.726-.601-2.507-1.054-.781-.454-1.488-1-2.121-1.641a11.073 11.073 0 01-1.64-2.121c-.462-.774-.817-1.61-1.067-2.508a10.399 10.399 0 01-.375-2.8c0-.97.125-1.9.375-2.79.25-.89.602-1.726 1.055-2.508.453-.78 1-1.488 1.64-2.12.64-.634 1.348-1.18 2.121-1.641A10.23 10.23 0 019.2 4.135 10.4 10.4 0 0112 3.76c.969 0 1.898.125 2.79.375.89.25 1.726.602 2.507 1.055.781.453 1.488 1 2.121 1.64.633.641 1.18 1.348 1.64 2.122.462.773.817 1.609 1.067 2.508.25.898.375 1.831.375 2.8 0 .969-.125 1.899-.375 2.79-.25.89-.602 1.726-1.055 2.507-.453.781-1 1.488-1.64 2.121-.64.633-1.348 1.18-2.121 1.64-.774.462-1.61.817-2.508 1.067A10.4 10.4 0 0112 24.76zm0-19.5a8.717 8.717 0 00-3.492.703 9.108 9.108 0 00-4.793 4.793A8.89 8.89 0 003 14.26c0 1.242.234 2.406.703 3.492a9.108 9.108 0 004.793 4.793A8.89 8.89 0 0012 23.26a8.716 8.716 0 003.492-.703 9.11 9.11 0 004.793-4.793A8.89 8.89 0 0021 14.26a8.717 8.717 0 00-.703-3.492 9.109 9.109 0 00-4.793-4.793A8.889 8.889 0 0012 5.26zm0 9v-6h-1.5v7.5h6v-1.5H12z"/></g><defs><clipPath id="rclip0_345_1134"><path fill="#fff" transform="translate(0 .76)" d="M0 0h24v24H0z"/></clipPath></defs></svg><svg viewBox="0 0 24 24" id="tools" xmlns="http://www.w3.org/2000/svg"><path d="M24 12.82a2.35 2.35 0 01-.68 1.653l-8.402 8.402-4.418 1.102 1.102-4.418 8.402-8.391c.219-.219.473-.379.762-.48a2.667 2.667 0 011.804.011 2.239 2.239 0 011.242 1.196c.11.265.172.574.188.925zm-1.5 0c0-.258-.078-.457-.234-.597-.157-.141-.36-.211-.61-.211-.11 0-.215.015-.316.047a.644.644 0 00-.27.164l-8.11 8.109-.398 1.582 1.583-.398 8.109-8.098a.814.814 0 00.246-.598zm-7.992 1.184c.18-.297.305-.617.375-.961s.11-.691.117-1.043c0-.617-.117-1.2-.352-1.746a4.513 4.513 0 00-2.402-2.402A4.18 4.18 0 0010.5 7.5c-.625 0-1.21.117-1.758.352a4.515 4.515 0 00-1.43.96 4.515 4.515 0 00-.96 1.43A4.415 4.415 0 006 12c0 .625.117 1.21.352 1.758.234.547.554 1.023.96 1.43.407.406.883.726 1.43.96a4.414 4.414 0 001.758.352c.352 0 .695-.04 1.031-.117.336-.078.66-.203.973-.375L10.512 18H10.5a5.868 5.868 0 01-2.344-.469 6.017 6.017 0 01-1.898-1.277 6.146 6.146 0 01-1.29-1.91A5.662 5.662 0 014.5 12c0-.828.156-1.605.469-2.332a6.16 6.16 0 011.277-1.91 5.888 5.888 0 011.91-1.29A5.923 5.923 0 0110.5 6c.836 0 1.617.156 2.344.469a6.06 6.06 0 011.91 1.289A5.866 5.866 0 0116.03 9.68a6.21 6.21 0 01.469 2.343l-1.992 1.98zm-5.18 6.914l-.363 1.465a9.852 9.852 0 01-2.45-.656A10.72 10.72 0 014.36 20.53a10.098 10.098 0 01-1.804-1.664 10.587 10.587 0 01-2.238-4.36A10.81 10.81 0 010 12c0-.96.125-1.887.375-2.777.25-.891.602-1.727 1.055-2.508a10.133 10.133 0 011.652-2.133 10.935 10.935 0 012.121-1.64 10.586 10.586 0 012.508-1.067A9.846 9.846 0 0110.5 1.5c1.156 0 2.258.176 3.305.527 1.047.352 2.008.848 2.883 1.489a10.23 10.23 0 012.285 2.32 11.353 11.353 0 011.523 2.988c-.25.078-.484.164-.703.258a2.95 2.95 0 00-.656.398 8.845 8.845 0 00-1.266-2.636 8.934 8.934 0 00-1.98-2.04 9.39 9.39 0 00-2.508-1.324A8.653 8.653 0 0010.5 3a8.96 8.96 0 00-2.39.316c-.766.211-1.481.516-2.145.914a9.987 9.987 0 00-1.828 1.407A8.139 8.139 0 002.73 7.453a9.746 9.746 0 00-.902 2.156A8.66 8.66 0 001.5 12c0 .742.09 1.465.27 2.168.18.703.433 1.371.761 2.004s.73 1.219 1.207 1.758c.477.539 1 1.015 1.57 1.43.57.413 1.2.753 1.887 1.019a9.094 9.094 0 002.133.539zM12 12c0 .21-.04.406-.117.586-.078.18-.184.336-.317.469a1.634 1.634 0 01-.48.328 1.271 1.271 0 01-.586.117c-.21 0-.406-.04-.586-.117a1.503 1.503 0 01-.469-.317 1.634 1.634 0 01-.328-.48A1.27 1.27 0 019 12c0-.21.04-.406.117-.586.078-.18.184-.336.317-.469.132-.133.293-.242.48-.328a1.27 1.27 0 01.586-.117c.21 0 .406.04.586.117.18.078.336.184.469.317.133.132.242.293.328.48.086.188.125.383.117.586z"/></svg><svg fill="none" viewBox="0 0 20 21" id="vk" xmlns="http://www.w3.org/2000/svg"><g clip-path="url(#tclip0_340_1659)"><path d="M19.894 15.1a1.345 1.345 0 00-.068-.13c-.347-.625-1.01-1.393-1.989-2.302l-.02-.02-.01-.011-.011-.01h-.01c-.445-.424-.726-.709-.844-.854-.216-.278-.264-.56-.146-.844.083-.215.396-.67.937-1.364.285-.368.51-.663.677-.885 1.201-1.597 1.722-2.617 1.562-3.062l-.062-.103c-.042-.063-.15-.12-.323-.172-.174-.052-.396-.06-.666-.026l-3 .02a.389.389 0 00-.208.006l-.135.031-.052.026-.042.031a.463.463 0 00-.114.11.716.716 0 00-.104.182c-.327.84-.698 1.62-1.114 2.343-.257.43-.493.803-.709 1.12a5.387 5.387 0 01-.541.697c-.146.15-.278.269-.396.36-.118.09-.208.128-.27.114a7.68 7.68 0 01-.178-.042.692.692 0 01-.234-.255 1.141 1.141 0 01-.12-.406 4.45 4.45 0 01-.036-.422 8.705 8.705 0 01.005-.5c.007-.215.01-.36.01-.437 0-.264.006-.55.016-.86l.026-.733c.007-.18.01-.372.01-.573 0-.201-.012-.36-.036-.474a1.619 1.619 0 00-.109-.333.561.561 0 00-.213-.25 1.203 1.203 0 00-.35-.14c-.367-.084-.836-.13-1.405-.136-1.291-.014-2.12.07-2.489.25-.146.076-.278.18-.396.312-.125.153-.142.236-.052.25.417.062.712.212.885.448l.063.125c.049.09.097.25.146.479.048.229.08.482.093.76.035.507.035.94 0 1.302-.034.36-.067.642-.098.843a1.689 1.689 0 01-.266.719.179.179 0 01-.052.051.78.78 0 01-.281.053c-.098 0-.216-.049-.354-.146a2.497 2.497 0 01-.432-.401 5.36 5.36 0 01-.506-.713A12.448 12.448 0 015.3 8.045l-.166-.302a25.97 25.97 0 01-.427-.849c-.18-.371-.34-.73-.48-1.078a.686.686 0 00-.249-.333l-.052-.031a.713.713 0 00-.167-.089 1.105 1.105 0 00-.24-.068l-2.852.021c-.292 0-.49.066-.594.198l-.042.063A.337.337 0 000 5.743c0 .077.02.17.063.281.416.98.869 1.923 1.358 2.833.49.91.915 1.642 1.276 2.197.36.555.729 1.08 1.104 1.572.375.493.623.809.744.948.122.139.217.243.287.312l.26.25c.167.167.411.366.734.599.323.232.68.462 1.073.687.392.226.848.41 1.37.552.52.142 1.027.2 1.52.172h1.197c.243-.021.427-.097.552-.23l.041-.051a.687.687 0 00.078-.193c.025-.087.037-.182.037-.286a3.429 3.429 0 01.067-.807c.052-.24.111-.42.178-.542a1.33 1.33 0 01.4-.458.691.691 0 01.084-.036c.166-.056.362-.002.588.161.226.164.438.365.636.604.197.24.435.509.713.807.278.299.52.52.729.667l.208.125c.139.083.32.16.542.229.221.07.416.087.583.052l2.665-.042c.264 0 .469-.043.614-.13.146-.087.233-.182.26-.286a.805.805 0 00.006-.354 1.311 1.311 0 00-.073-.276z" fill="#111"/></g><defs><clipPath id="tclip0_340_1659"><path fill="#fff" transform="translate(0 .5)" d="M0 0h20v20H0z"/></clipPath></defs></svg></svg>