<svg width="39" height="11" viewBox="0 0 39 11" fill="none" xmlns="http://www.w3.org/2000/svg">
<g clip-path="url(#clip0_1_4)">
<path d="M517.655 4.4131C511.825 -1.43419 502.337 -1.43419 496.507 4.4131C494.307 6.61962 491.393 7.83326 488.285 7.83326C485.178 7.83326 482.262 6.61962 480.062 4.4131C477.23 1.5722 473.49 0 469.503 0C465.515 0 461.748 1.5722 458.943 4.4131C456.743 6.61962 453.828 7.83326 450.72 7.83326C447.613 7.83326 444.698 6.61962 442.498 4.4131C436.668 -1.43419 427.18 -1.43419 421.35 4.4131C419.15 6.61962 416.235 7.83326 413.128 7.83326C410.02 7.83326 407.105 6.61962 404.905 4.4131C399.075 -1.43419 389.588 -1.43419 383.758 4.4131C381.558 6.61962 378.643 7.83326 375.535 7.83326C372.428 7.83326 369.512 6.61962 367.312 4.4131C361.483 -1.43419 351.995 -1.43419 346.165 4.4131C343.965 6.61962 341.05 7.83326 337.943 7.83326C334.835 7.83326 331.92 6.61962 329.72 4.4131C323.89 -1.43419 314.403 -1.43419 308.573 4.4131C306.373 6.61962 303.458 7.83326 300.35 7.83326C297.243 7.83326 294.328 6.61962 292.128 4.4131C289.295 1.5722 285.555 0 281.568 0C277.58 0 273.84 1.5722 271.008 4.4131C268.808 6.61962 265.893 7.83326 262.785 7.83326C259.678 7.83326 256.763 6.61962 254.563 4.4131C248.733 -1.46177 239.245 -1.46177 233.415 4.4131C231.215 6.61962 228.3 7.83326 225.193 7.83326C222.085 7.83326 219.17 6.61962 216.97 4.4131C211.14 -1.46177 201.68 -1.46177 195.85 4.4131C193.65 6.61962 190.735 7.83326 187.628 7.83326C184.52 7.83326 181.605 6.61962 179.405 4.4131C173.575 -1.43419 164.088 -1.43419 158.258 4.4131C156.058 6.61962 153.143 7.83326 150.035 7.83326C146.928 7.83326 144.013 6.61962 141.813 4.4131C135.983 -1.46177 126.495 -1.46177 120.665 4.4131C118.465 6.61962 115.55 7.83326 112.443 7.83326C109.335 7.83326 106.42 6.61962 104.22 4.4131C98.39 -1.46177 88.9025 -1.46177 83.1 4.4131C80.9 6.61962 77.985 7.83326 74.8775 7.83326C71.77 7.83326 68.855 6.61962 66.655 4.4131C60.825 -1.43419 51.3375 -1.43419 45.5075 4.4131C43.3075 6.61962 40.3925 7.83326 37.285 7.83326C34.1775 7.83326 31.2625 6.61962 29.0625 4.4131C23.2325 -1.46177 13.745 -1.46177 7.91504 4.4131C5.77004 6.56446 2.93754 7.77809 -0.059961 7.83326H-0.334961V11.1707H-0.059961C3.84504 11.1155 7.50254 9.5433 10.2525 6.78514C14.79 2.20662 22.1875 2.20662 26.6975 6.75756C29.53 9.59846 33.27 11.1707 37.2575 11.1707C41.245 11.1707 45.0125 9.59846 47.8175 6.75756C52.3825 2.20662 59.7525 2.20662 64.29 6.75756C67.1225 9.59846 70.8625 11.1707 74.85 11.1707C78.8375 11.1707 82.605 9.59846 85.41 6.75756C87.61 4.55105 90.525 3.33741 93.6325 3.33741C96.74 3.33741 99.655 4.55105 101.855 6.75756C104.688 9.59846 108.428 11.1707 112.415 11.1707C116.403 11.1707 120.17 9.59846 122.975 6.75756C127.54 2.20662 134.938 2.20662 139.475 6.75756C142.308 9.59846 146.048 11.1707 150.035 11.1707C154.023 11.1707 157.79 9.59846 160.595 6.75756C165.133 2.20662 172.503 2.20662 177.04 6.75756C179.873 9.59846 183.613 11.1707 187.6 11.1707C191.588 11.1707 195.355 9.59846 198.16 6.75756C202.698 2.20662 210.068 2.20662 214.605 6.75756C217.438 9.59846 221.178 11.1707 225.165 11.1707C229.153 11.1707 232.92 9.59846 235.725 6.75756C240.263 2.20662 247.633 2.20662 252.17 6.75756C255.003 9.59846 258.743 11.1707 262.73 11.1707C266.718 11.1707 270.485 9.59846 273.29 6.75756C275.49 4.55105 278.405 3.33741 281.513 3.33741C284.62 3.33741 287.535 4.55105 289.735 6.75756C292.568 9.59846 296.308 11.1707 300.295 11.1707C304.283 11.1707 308.05 9.59846 310.855 6.75756C315.393 2.20662 322.763 2.20662 327.3 6.75756C330.133 9.59846 333.873 11.1707 337.86 11.1707C341.848 11.1707 345.615 9.59846 348.42 6.75756C352.957 2.20662 360.328 2.20662 364.865 6.75756C367.698 9.59846 371.438 11.1707 375.425 11.1707C379.413 11.1707 383.18 9.59846 385.985 6.75756C390.523 2.20662 397.892 2.20662 402.43 6.75756C405.262 9.59846 409.002 11.1707 412.99 11.1707C416.977 11.1707 420.745 9.59846 423.55 6.75756C428.088 2.20662 435.457 2.20662 439.995 6.75756C442.827 9.59846 446.567 11.1707 450.555 11.1707C454.542 11.1707 458.31 9.59846 461.115 6.75756C463.315 4.55105 466.23 3.33741 469.337 3.33741C472.445 3.33741 475.36 4.55105 477.56 6.75756C480.392 9.59846 484.132 11.1707 488.12 11.1707C492.107 11.1707 495.875 9.59846 498.68 6.75756C503.217 2.20662 510.588 2.20662 515.125 6.75756C518.315 9.95703 522.743 11.5292 527.253 11.0603L527.5 11.0328V7.66776L527.198 7.69535C523.76 8.19182 520.212 6.97818 517.655 4.4131Z" fill="#FFF"/>
</g>
<defs>
<clipPath id="clip0_1_4">
<rect width="39" height="11" fill="white"/>
</clipPath>
</defs>
</svg>
