<svg width="0" height="0" class="hidden">
  <symbol xmlns="http://www.w3.org/2000/svg" viewBox="0 0 24 24" id="contacts">
    <path d="M24 4.5V19.5H0V4.5H24ZM1.67578 6L12 11.168L22.3242 6H1.67578ZM22.5 18V7.59375L12 12.832L1.5 7.59375V18H22.5Z"></path>
  </symbol>
  <symbol xmlns="http://www.w3.org/2000/svg" viewBox="0 0 24 24" id="eat">
    <path d="M11.25 0C11.4531 0 11.6289 0.0742188 11.7773 0.222656C11.9258 0.371094 12 0.546875 12 0.75V9C12 9.41406 11.9219 9.80078 11.7656 10.1602C11.6094 10.5195 11.3945 10.8359 11.1211 11.1094C10.8477 11.3828 10.5273 11.5977 10.1602 11.7539C9.79297 11.9102 9.40625 11.9922 9 12V23.25C9 23.4531 8.92578 23.6289 8.77734 23.7773C8.62891 23.9258 8.45312 24 8.25 24C8.04688 24 7.87109 23.9258 7.72266 23.7773C7.57422 23.6289 7.5 23.4531 7.5 23.25V12C7.08594 12 6.69922 11.9219 6.33984 11.7656C5.98047 11.6094 5.66406 11.3945 5.39062 11.1211C5.11719 10.8477 4.90234 10.5312 4.74609 10.1719C4.58984 9.8125 4.50781 9.42188 4.5 9V0.75C4.5 0.546875 4.57422 0.371094 4.72266 0.222656C4.87109 0.0742188 5.04688 0 5.25 0C5.45312 0 5.62891 0.0742188 5.77734 0.222656C5.92578 0.371094 6 0.546875 6 0.75V9C6 9.21094 6.03906 9.40625 6.11719 9.58594C6.19531 9.76562 6.30078 9.92188 6.43359 10.0547C6.56641 10.1875 6.72656 10.2969 6.91406 10.3828C7.10156 10.4688 7.29688 10.5078 7.5 10.5V0.75C7.5 0.546875 7.57422 0.371094 7.72266 0.222656C7.87109 0.0742188 8.04688 0 8.25 0C8.45312 0 8.62891 0.0742188 8.77734 0.222656C8.92578 0.371094 9 0.546875 9 0.75V10.5C9.21094 10.5 9.40625 10.4609 9.58594 10.3828C9.76562 10.3047 9.92188 10.1992 10.0547 10.0664C10.1875 9.93359 10.2969 9.77344 10.3828 9.58594C10.4688 9.39844 10.5078 9.20312 10.5 9V0.75C10.5 0.546875 10.5742 0.371094 10.7227 0.222656C10.8711 0.0742188 11.0469 0 11.25 0ZM19.5 0V23.25C19.5 23.4531 19.4258 23.6289 19.2773 23.7773C19.1289 23.9258 18.9531 24 18.75 24C18.5469 24 18.3711 23.9258 18.2227 23.7773C18.0742 23.6289 18 23.4531 18 23.25V16.5C17.7109 16.5 17.3984 16.5039 17.0625 16.5117C16.7266 16.5195 16.3945 16.5156 16.0664 16.5C15.7383 16.4844 15.418 16.4375 15.1055 16.3594C14.793 16.2812 14.5195 16.1602 14.2852 15.9961C14.0508 15.832 13.8594 15.6094 13.7109 15.3281C13.5625 15.0469 13.4922 14.6875 13.5 14.25V5.25C13.5 4.52344 13.6367 3.84375 13.9102 3.21094C14.1836 2.57812 14.5586 2.02344 15.0352 1.54688C15.5117 1.07031 16.0664 0.695312 16.6992 0.421875C17.332 0.148438 18.0156 0.0078125 18.75 0H19.5ZM18 1.57031C17.5625 1.65625 17.1641 1.8125 16.8047 2.03906C16.4453 2.26562 16.1289 2.54688 15.8555 2.88281C15.582 3.21875 15.3711 3.58203 15.2227 3.97266C15.0742 4.36328 15 4.78906 15 5.25V14.25C15 14.4531 15.0742 14.6289 15.2227 14.7773C15.3711 14.9258 15.5469 15 15.75 15H18V1.57031Z"></path>
  </symbol>
  <symbol xmlns="http://www.w3.org/2000/svg" viewBox="0 0 24 24" id="events">
    <g clip-path="url(#clip0_340_1111)">
      <path d="M24 1.5V13.5H22.5V7.5H1.5V21H12V22.5H0V1.5H4.5V0H6V1.5H18V0H19.5V1.5H24ZM22.5 6V3H19.5V4.5H18V3H6V4.5H4.5V3H1.5V6H22.5ZM22.7227 15.9727L23.7773 17.0273L17.25 23.5664L14.0977 20.4023L15.1523 19.3477L17.25 21.4336L22.7227 15.9727Z"></path>
    </g>
    <defs>
      <clipPath id="clip0_340_1111">
        <rect width="24" height="24" fill="white"></rect>
      </clipPath>
    </defs>
  </symbol>
  <symbol fill="none" xmlns="http://www.w3.org/2000/svg" viewBox="0 0 20 21" id="facebook">
    <g clip-path="url(#clip0_340_1656)">
      <path d="M14.9991 0.504161L12.4055 0.5C9.49178 0.5 7.60877 2.4319 7.60877 5.42203V7.69141H5.00107C4.77574 7.69141 4.59326 7.87409 4.59326 8.09943V11.3875C4.59326 11.6128 4.77594 11.7953 5.00107 11.7953H7.60877V20.0922C7.60877 20.3175 7.79125 20.5 8.01658 20.5H11.4189C11.6442 20.5 11.8267 20.3173 11.8267 20.0922V11.7953H14.8757C15.101 11.7953 15.2835 11.6128 15.2835 11.3875L15.2848 8.09943C15.2848 7.99123 15.2417 7.88762 15.1653 7.81105C15.089 7.73448 14.9849 7.69141 14.8767 7.69141H11.8267V5.76763C11.8267 4.84298 12.047 4.37358 13.2515 4.37358L14.9987 4.37295C15.2238 4.37295 15.4063 4.19027 15.4063 3.96514V0.911972C15.4063 0.687052 15.224 0.504577 14.9991 0.504161Z" fill="#111111"></path>
    </g>
    <defs>
      <clipPath id="clip0_340_1656">
        <rect width="20.0002" height="20" fill="white" transform="translate(0 0.5)"></rect>
      </clipPath>
    </defs>
  </symbol>
  <symbol xmlns="http://www.w3.org/2000/svg" viewBox="0 0 24 24" id="fitness">
    <g clip-path="url(#clip0_340_1101)">
      <path d="M22.0664 7.5L23.5664 9L20.25 12.3047L16.5 8.56641L8.56641 16.5L12.3047 20.25L9 23.5664L7.5 22.0664L5.625 23.9297L3.375 21.6914C3.29688 21.7617 3.21875 21.8438 3.14062 21.9375C3.0625 22.0312 2.97656 22.1172 2.88281 22.1953C2.78906 22.2734 2.69141 22.3438 2.58984 22.4062C2.48828 22.4688 2.375 22.5 2.25 22.5C2.04688 22.5 1.87109 22.4258 1.72266 22.2773C1.57422 22.1289 1.5 21.9531 1.5 21.75C1.5 21.6328 1.52734 21.5234 1.58203 21.4219C1.63672 21.3203 1.70703 21.2227 1.79297 21.1289C1.87891 21.0352 1.96875 20.9492 2.0625 20.8711C2.15625 20.793 2.23828 20.7109 2.30859 20.625L0.0703125 18.375L1.93359 16.5L0.433594 15L3.75 11.6953L7.5 15.4336L15.4336 7.5L11.6953 3.75L15 0.433594L16.5 1.93359L18.375 0.0703125L20.625 2.30859C20.7031 2.23828 20.7812 2.15625 20.8594 2.0625C20.9375 1.96875 21.0234 1.88281 21.1172 1.80469C21.2109 1.72656 21.3086 1.65625 21.4102 1.59375C21.5117 1.53125 21.625 1.5 21.75 1.5C21.9531 1.5 22.1289 1.57422 22.2773 1.72266C22.4258 1.87109 22.5 2.04688 22.5 2.25C22.5 2.36719 22.4727 2.47656 22.418 2.57812C22.3633 2.67969 22.293 2.77734 22.207 2.87109C22.1211 2.96484 22.0312 3.05078 21.9375 3.12891C21.8438 3.20703 21.7617 3.28906 21.6914 3.375L23.9297 5.625L22.0664 7.5ZM6.43359 21L3 17.5664L2.19141 18.375L5.625 21.8086L6.43359 21ZM10.1953 20.25L3.75 13.8047L2.56641 15L9 21.4336L10.1953 20.25ZM17.5664 3L21 6.43359L21.8086 5.625L18.375 2.19141L17.5664 3ZM21.4336 9L15 2.56641L13.8047 3.75L20.25 10.1953L21.4336 9Z"></path>
    </g>
    <defs>
      <clipPath id="clip0_340_1101">
        <rect width="24" height="24" fill="white"></rect>
      </clipPath>
    </defs>
  </symbol>
  <symbol fill="none" xmlns="http://www.w3.org/2000/svg" viewBox="0 0 24 25" id="floors">
    <path d="M19.5 10.5103L24 12.7603L19.5 15.0103L24 17.2603L12 23.2603L0 17.2603L4.5 15.0103L0 12.7603L4.5 10.5103L0 8.26025L12 2.26025L24 8.26025L19.5 10.5103ZM3.35156 8.26025L12 12.5845L20.6484 8.26025L12 3.93604L3.35156 8.26025ZM20.6484 17.2603L17.8242 15.854L12 18.7603L6.17578 15.854L3.35156 17.2603L12 21.5845L20.6484 17.2603ZM12 17.0845L20.6484 12.7603L17.8242 11.354L12 14.2603L6.17578 11.354L3.35156 12.7603L12 17.0845Z" fill="black"></path>
  </symbol>
  <symbol fill="none" xmlns="http://www.w3.org/2000/svg" viewBox="0 0 20 21" id="instagram">
    <g clip-path="url(#clip0_340_1641)">
      <path d="M13.75 0.5H6.25C2.79875 0.5 0 3.29875 0 6.75V14.25C0 17.7012 2.79875 20.5 6.25 20.5H13.75C17.2012 20.5 20 17.7012 20 14.25V6.75C20 3.29875 17.2012 0.5 13.75 0.5ZM18.125 14.25C18.125 16.6625 16.1625 18.625 13.75 18.625H6.25C3.8375 18.625 1.875 16.6625 1.875 14.25V6.75C1.875 4.3375 3.8375 2.375 6.25 2.375H13.75C16.1625 2.375 18.125 4.3375 18.125 6.75V14.25Z" fill="#111111"></path>
      <path d="M10 5.5C7.23875 5.5 5 7.73875 5 10.5C5 13.2613 7.23875 15.5 10 15.5C12.7613 15.5 15 13.2613 15 10.5C15 7.73875 12.7613 5.5 10 5.5ZM10 13.625C8.2775 13.625 6.875 12.2225 6.875 10.5C6.875 8.77625 8.2775 7.375 10 7.375C11.7225 7.375 13.125 8.77625 13.125 10.5C13.125 12.2225 11.7225 13.625 10 13.625Z" fill="#111111"></path>
      <path d="M15.3752 5.79148C15.7432 5.79148 16.0415 5.49319 16.0415 5.12523C16.0415 4.75727 15.7432 4.45898 15.3752 4.45898C15.0073 4.45898 14.709 4.75727 14.709 5.12523C14.709 5.49319 15.0073 5.79148 15.3752 5.79148Z" fill="#111111"></path>
    </g>
    <defs>
      <clipPath id="clip0_340_1641">
        <rect width="20" height="20" fill="white" transform="translate(0 0.5)"></rect>
      </clipPath>
    </defs>
  </symbol>
  <symbol fill="none" xmlns="http://www.w3.org/2000/svg" viewBox="0 0 20 21" id="odnoklassniki">
    <g clip-path="url(#clip0_340_1651)">
      <path d="M9.01588 14.5874C7.46541 14.4256 6.06744 14.0438 4.87055 13.1077C4.72204 12.9912 4.56871 12.879 4.43319 12.7489C3.90931 12.2457 3.85653 11.6695 4.27106 11.0757C4.62569 10.5675 5.22099 10.4316 5.83975 10.7233C5.95956 10.7799 6.07372 10.8505 6.18306 10.9263C8.41366 12.459 11.4779 12.5013 13.7169 10.9952C13.9387 10.8251 14.1759 10.6865 14.4507 10.6157C14.985 10.4785 15.4833 10.6747 15.7701 11.1423C16.0977 11.6762 16.0935 12.1974 15.6899 12.6119C15.0707 13.2474 14.326 13.7072 13.4987 14.0281C12.7163 14.3314 11.8594 14.4841 11.0112 14.5855C11.1392 14.7248 11.1996 14.7933 11.2796 14.8737C12.4312 16.0308 13.5879 17.1831 14.7358 18.3437C15.1268 18.7392 15.2085 19.2295 14.9932 19.6895C14.7578 20.1922 14.2307 20.523 13.714 20.4876C13.3866 20.465 13.1313 20.302 12.9044 20.0735C12.0353 19.199 11.1499 18.3406 10.2984 17.4495C10.0506 17.1904 9.93145 17.2394 9.71277 17.4644C8.83846 18.3644 7.94991 19.2507 7.05612 20.1319C6.65478 20.5276 6.1772 20.5988 5.71177 20.3728C5.21701 20.133 4.90218 19.6279 4.92648 19.1204C4.94324 18.7771 5.11206 18.5148 5.34771 18.2796C6.48742 17.1416 7.62398 16.0006 8.76096 14.8607C8.83616 14.7849 8.90633 14.7044 9.01588 14.5874Z" fill="#111111"></path>
      <path d="M9.96043 10.6233C7.19443 10.6139 4.92634 8.32084 4.94247 5.55045C4.95839 2.74947 7.22795 0.49227 10.0212 0.50002C12.8201 0.507561 15.0666 2.79723 15.0525 5.62732C15.0383 8.39206 12.7545 10.6329 9.96043 10.6233ZM12.4742 5.55715C12.4694 4.18159 11.3739 3.0865 10.0011 3.08525C8.61671 3.08378 7.51136 4.19877 7.52204 5.5869C7.5323 6.95722 8.63723 8.04456 10.0138 8.03953C11.3863 8.03471 12.4788 6.9325 12.4742 5.55715Z" fill="#111111"></path>
    </g>
    <defs>
      <clipPath id="clip0_340_1651">
        <rect width="20" height="20" fill="white" transform="translate(0 0.5)"></rect>
      </clipPath>
    </defs>
  </symbol>
  <symbol fill="none" xmlns="http://www.w3.org/2000/svg" viewBox="0 0 21 21" id="parking">
    <path d="M6.76 3.36H9.9C11.6333 3.36 12.9133 3.66666 13.74 4.28C14.58 4.89333 15 5.92666 15 7.38C15 8.18 14.8467 8.84667 14.54 9.38C14.2333 9.91333 13.8467 10.3467 13.38 10.68C12.9267 11 12.4333 11.2333 11.9 11.38C11.3667 11.5133 10.8733 11.58 10.42 11.58H8.44V17H6.76V3.36ZM8.44 10.08H10.28C10.7333 10.08 11.14 10.04 11.5 9.96C11.8733 9.86667 12.1933 9.72 12.46 9.52C12.7267 9.30667 12.9333 9.02667 13.08 8.68C13.2267 8.32 13.3 7.87333 13.3 7.34C13.3 6.80667 13.22 6.38 13.06 6.06C12.9133 5.72666 12.6867 5.47333 12.38 5.3C12.0867 5.12666 11.7133 5.01333 11.26 4.96C10.8067 4.89333 10.28 4.86 9.68 4.86H8.44V10.08Z" fill="#111111"></path>
    <rect x="0.5" y="0.5" width="20" height="20" stroke="black"></rect>
  </symbol>
  <symbol xmlns="http://www.w3.org/2000/svg" viewBox="0 0 24 24" id="kids">
    <g clip-path="url(#clip0_340_1107)">
      <path d="M12 0C13.1016 0 14.1641 0.140625 15.1875 0.421875C16.2109 0.703125 17.168 1.10547 18.0586 1.62891C18.9492 2.15234 19.7578 2.77734 20.4844 3.50391C21.2109 4.23047 21.8359 5.04297 22.3594 5.94141C22.8828 6.83984 23.2852 7.79688 23.5664 8.8125C23.8477 9.82812 23.9922 10.8906 24 12C24 13.1016 23.8594 14.1641 23.5781 15.1875C23.2969 16.2109 22.8945 17.168 22.3711 18.0586C21.8477 18.9492 21.2227 19.7578 20.4961 20.4844C19.7695 21.2109 18.957 21.8359 18.0586 22.3594C17.1602 22.8828 16.2031 23.2852 15.1875 23.5664C14.1719 23.8477 13.1094 23.9922 12 24C10.8984 24 9.83594 23.8594 8.8125 23.5781C7.78906 23.2969 6.83203 22.8945 5.94141 22.3711C5.05078 21.8477 4.24219 21.2227 3.51562 20.4961C2.78906 19.7695 2.16406 18.957 1.64062 18.0586C1.11719 17.1602 0.714844 16.207 0.433594 15.1992C0.152344 14.1914 0.0078125 13.125 0 12C0 10.8984 0.140625 9.83594 0.421875 8.8125C0.703125 7.78906 1.10547 6.83203 1.62891 5.94141C2.15234 5.05078 2.77734 4.24219 3.50391 3.51562C4.23047 2.78906 5.04297 2.16406 5.94141 1.64062C6.83984 1.11719 7.79297 0.714844 8.80078 0.433594C9.80859 0.152344 10.875 0.0078125 12 0ZM12 22.5C12.9609 22.5 13.8867 22.375 14.7773 22.125C15.668 21.875 16.5039 21.5234 17.2852 21.0703C18.0664 20.6172 18.7773 20.0664 19.418 19.418C20.0586 18.7695 20.6055 18.0625 21.0586 17.2969C21.5117 16.5312 21.8672 15.6953 22.125 14.7891C22.3828 13.8828 22.5078 12.9531 22.5 12C22.5 11.0391 22.375 10.1133 22.125 9.22266C21.875 8.33203 21.5234 7.49609 21.0703 6.71484C20.6172 5.93359 20.0664 5.22266 19.418 4.58203C18.7695 3.94141 18.0625 3.39453 17.2969 2.94141C16.5312 2.48828 15.6953 2.13281 14.7891 1.875C13.8828 1.61719 12.9531 1.49219 12 1.5C11.0391 1.5 10.1133 1.625 9.22266 1.875C8.33203 2.125 7.49609 2.47656 6.71484 2.92969C5.93359 3.38281 5.22266 3.93359 4.58203 4.58203C3.94141 5.23047 3.39453 5.9375 2.94141 6.70312C2.48828 7.46875 2.13281 8.30469 1.875 9.21094C1.61719 10.1172 1.49219 11.0469 1.5 12C1.5 12.9609 1.625 13.8867 1.875 14.7773C2.125 15.668 2.47656 16.5039 2.92969 17.2852C3.38281 18.0664 3.93359 18.7773 4.58203 19.418C5.23047 20.0586 5.9375 20.6055 6.70312 21.0586C7.46875 21.5117 8.30469 21.8672 9.21094 22.125C10.1172 22.3828 11.0469 22.5078 12 22.5ZM7.5 6C7.71094 6 7.90625 6.03906 8.08594 6.11719C8.26562 6.19531 8.42188 6.30078 8.55469 6.43359C8.6875 6.56641 8.79688 6.72656 8.88281 6.91406C8.96875 7.10156 9.00781 7.29688 9 7.5H6C6 7.28906 6.03906 7.09375 6.11719 6.91406C6.19531 6.73438 6.30078 6.57812 6.43359 6.44531C6.56641 6.3125 6.72656 6.20312 6.91406 6.11719C7.10156 6.03125 7.29688 5.99219 7.5 6ZM16.5 6C16.7109 6 16.9062 6.03906 17.0859 6.11719C17.2656 6.19531 17.4219 6.30078 17.5547 6.43359C17.6875 6.56641 17.7969 6.72656 17.8828 6.91406C17.9688 7.10156 18.0078 7.29688 18 7.5H15C15 7.28906 15.0391 7.09375 15.1172 6.91406C15.1953 6.73438 15.3008 6.57812 15.4336 6.44531C15.5664 6.3125 15.7266 6.20312 15.9141 6.11719C16.1016 6.03125 16.2969 5.99219 16.5 6ZM17.25 9C17.5625 9 17.8555 9.05859 18.1289 9.17578C18.4023 9.29297 18.6406 9.45312 18.8438 9.65625C19.0469 9.85938 19.207 10.0977 19.3242 10.3711C19.4414 10.6445 19.5 10.9375 19.5 11.25V12C19.5 13.0391 19.3047 14.0117 18.9141 14.918C18.5234 15.8242 17.9883 16.6211 17.3086 17.3086C16.6289 17.9961 15.8359 18.5312 14.9297 18.9141C14.0234 19.2969 13.0469 19.4922 12 19.5C10.9609 19.5 9.98828 19.3047 9.08203 18.9141C8.17578 18.5234 7.37891 17.9883 6.69141 17.3086C6.00391 16.6289 5.46875 15.8359 5.08594 14.9297C4.70312 14.0234 4.50781 13.0469 4.5 12C4.5 11.625 4.53125 11.2578 4.59375 10.8984C4.65625 10.5391 4.76953 10.2188 4.93359 9.9375C5.09766 9.65625 5.32422 9.42969 5.61328 9.25781C5.90234 9.08594 6.28125 9 6.75 9C7.32812 9 7.83203 9.07812 8.26172 9.23438C8.69141 9.39062 9.09766 9.5625 9.48047 9.75C9.86328 9.9375 10.2539 10.1094 10.6523 10.2656C11.0508 10.4219 11.5 10.5 12 10.5C12.5 10.5 12.9453 10.4219 13.3359 10.2656C13.7266 10.1094 14.1172 9.9375 14.5078 9.75C14.8984 9.5625 15.3086 9.39062 15.7383 9.23438C16.168 9.07812 16.6719 9 17.25 9ZM18 11.25C18 11.0469 17.9258 10.8711 17.7773 10.7227C17.6289 10.5742 17.4531 10.5 17.25 10.5C16.9141 10.5 16.6055 10.5352 16.3242 10.6055C16.043 10.6758 15.7734 10.7695 15.5156 10.8867C15.2578 11.0039 15 11.125 14.7422 11.25C14.4844 11.375 14.2188 11.4961 13.9453 11.6133C13.6719 11.7305 13.375 11.8203 13.0547 11.8828C12.7344 11.9453 12.3828 11.9844 12 12C11.6172 12 11.2695 11.9648 10.957 11.8945C10.6445 11.8242 10.3477 11.7305 10.0664 11.6133C9.78516 11.4961 9.51953 11.375 9.26953 11.25C9.01953 11.125 8.76172 11.0039 8.49609 10.8867C8.23047 10.7695 7.95703 10.6797 7.67578 10.6172C7.39453 10.5547 7.08594 10.5156 6.75 10.5C6.54688 10.5 6.37109 10.5742 6.22266 10.7227C6.07422 10.8711 6 11.0469 6 11.25V12C6 12.8281 6.15625 13.6055 6.46875 14.332C6.78125 15.0586 7.21094 15.6914 7.75781 16.2305C8.30469 16.7695 8.94141 17.1992 9.66797 17.5195C10.3945 17.8398 11.1719 18 12 18C12.8281 18 13.6055 17.8438 14.332 17.5312C15.0586 17.2188 15.6914 16.7891 16.2305 16.2422C16.7695 15.6953 17.1992 15.0586 17.5195 14.332C17.8398 13.6055 18 12.8281 18 12V11.25Z"></path>
    </g>
    <defs>
      <clipPath id="clip0_340_1107">
        <rect width="24" height="24" fill="white"></rect>
      </clipPath>
    </defs>
  </symbol>
  <symbol fill="none" xmlns="http://www.w3.org/2000/svg" viewBox="0 0 23 25" id="route">
    <path d="M22.5 24.2603H0L4.5 10.7603H10.5V7.68994C10.0625 7.59619 9.66016 7.43604 9.29297 7.20947C8.92578 6.98291 8.60937 6.70947 8.34375 6.38916C8.07813 6.06885 7.87109 5.70166 7.72266 5.2876C7.57422 4.87354 7.5 4.44775 7.5 4.01025C7.5 3.49463 7.59766 3.01025 7.79297 2.55713C7.98828 2.104 8.25391 1.70947 8.58984 1.37354C8.92578 1.0376 9.32422 0.768066 9.78516 0.564941C10.2461 0.361816 10.7344 0.260254 11.25 0.260254C11.7656 0.260254 12.25 0.35791 12.7031 0.553223C13.1563 0.748535 13.5508 1.01807 13.8867 1.36182C14.2227 1.70557 14.4922 2.104 14.6953 2.55713C14.8984 3.01025 15 3.49463 15 4.01025C15 4.45557 14.9258 4.88135 14.7773 5.2876C14.6289 5.69385 14.4219 6.05713 14.1562 6.37744C13.8906 6.69775 13.5742 6.9751 13.207 7.20947C12.8398 7.44385 12.4375 7.604 12 7.68994V10.7603H18L22.5 24.2603ZM9 4.01025C9 4.32275 9.05859 4.61572 9.17578 4.88916C9.29297 5.1626 9.45312 5.40088 9.65625 5.604C9.85938 5.80713 10.0977 5.96729 10.3711 6.08447C10.6445 6.20166 10.9375 6.26025 11.25 6.26025C11.5625 6.26025 11.8555 6.20166 12.1289 6.08447C12.4023 5.96729 12.6406 5.80713 12.8438 5.604C13.0469 5.40088 13.207 5.1626 13.3242 4.88916C13.4414 4.61572 13.5 4.32275 13.5 4.01025C13.5 3.69775 13.4414 3.40479 13.3242 3.13135C13.207 2.85791 13.0469 2.61963 12.8438 2.4165C12.6406 2.21338 12.4023 2.05322 12.1289 1.93604C11.8555 1.81885 11.5625 1.76025 11.25 1.76025C10.9375 1.76025 10.6445 1.81885 10.3711 1.93604C10.0977 2.05322 9.85938 2.21338 9.65625 2.4165C9.45312 2.61963 9.29297 2.85791 9.17578 3.13135C9.05859 3.40479 9 3.69775 9 4.01025ZM2.08594 22.7603H20.4141L16.9219 12.2603H12V17.8853C12 17.9556 11.9727 18.0142 11.918 18.061C11.8633 18.1079 11.793 18.147 11.707 18.1782C11.6211 18.2095 11.5391 18.229 11.4609 18.2368C11.3828 18.2446 11.3125 18.2524 11.25 18.2603C11.1953 18.2603 11.1289 18.2563 11.0508 18.2485C10.9727 18.2407 10.8906 18.2212 10.8047 18.1899C10.7187 18.1587 10.6484 18.1196 10.5938 18.0728C10.5391 18.0259 10.5078 17.9634 10.5 17.8853V12.2603H5.57812L2.08594 22.7603Z" fill="#111111"></path>
  </symbol>
  <symbol fill="none" xmlns="http://www.w3.org/2000/svg" viewBox="0 0 20 20" id="search">
    <g clip-path="url(#clip0_340_1778)">
      <path d="M13.125 0C13.7565 0 14.3652 0.0813802 14.9512 0.244141C15.5371 0.406901 16.084 0.638021 16.5918 0.9375C17.0996 1.23698 17.5618 1.59505 17.9785 2.01172C18.3952 2.42839 18.7565 2.89388 19.0625 3.4082C19.3685 3.92253 19.5996 4.4694 19.7559 5.04883C19.9121 5.62826 19.9935 6.23698 20 6.875C20 7.50651 19.9186 8.11523 19.7559 8.70117C19.5931 9.28711 19.362 9.83398 19.0625 10.3418C18.763 10.8496 18.4049 11.3118 17.9883 11.7285C17.5716 12.1452 17.1061 12.5065 16.5918 12.8125C16.0775 13.1185 15.5306 13.3496 14.9512 13.5059C14.3717 13.6621 13.763 13.7435 13.125 13.75C12.3112 13.75 11.5332 13.6133 10.791 13.3398C10.0488 13.0664 9.36198 12.6725 8.73047 12.1582L1.06445 19.8145C0.940755 19.9382 0.794271 20 0.625 20C0.455729 20 0.309245 19.9382 0.185547 19.8145C0.061849 19.6908 0 19.5443 0 19.375C0 19.2057 0.061849 19.0592 0.185547 18.9355L7.8418 11.2695C7.32747 10.6445 6.93359 9.96094 6.66016 9.21875C6.38672 8.47656 6.25 7.69531 6.25 6.875C6.25 6.24349 6.33138 5.63477 6.49414 5.04883C6.6569 4.46289 6.88802 3.91602 7.1875 3.4082C7.48698 2.90039 7.84505 2.43815 8.26172 2.02148C8.67839 1.60482 9.14388 1.24349 9.6582 0.9375C10.1725 0.63151 10.7194 0.400391 11.2988 0.244141C11.8783 0.0878906 12.487 0.00651042 13.125 0ZM13.125 12.5C13.8997 12.5 14.6289 12.3535 15.3125 12.0605C15.9961 11.7676 16.5918 11.3639 17.0996 10.8496C17.6074 10.3353 18.0078 9.73958 18.3008 9.0625C18.5938 8.38542 18.7435 7.65625 18.75 6.875C18.75 6.10026 18.6035 5.37109 18.3105 4.6875C18.0176 4.00391 17.6139 3.4082 17.0996 2.90039C16.5853 2.39258 15.9896 1.99219 15.3125 1.69922C14.6354 1.40625 13.9062 1.25651 13.125 1.25C12.3503 1.25 11.6211 1.39648 10.9375 1.68945C10.2539 1.98242 9.6582 2.38607 9.15039 2.90039C8.64258 3.41471 8.24219 4.01042 7.94922 4.6875C7.65625 5.36458 7.50651 6.09375 7.5 6.875C7.5 7.64974 7.64648 8.37891 7.93945 9.0625C8.23242 9.74609 8.63607 10.3418 9.15039 10.8496C9.66471 11.3574 10.2604 11.7578 10.9375 12.0508C11.6146 12.3438 12.3438 12.4935 13.125 12.5Z" fill="#111111"></path>
    </g>
    <defs>
      <clipPath id="clip0_340_1778">
        <rect width="20" height="20" fill="white"></rect>
      </clipPath>
    </defs>
  </symbol>
  <symbol xmlns="http://www.w3.org/2000/svg" viewBox="0 0 24 24" id="services">
    <g clip-path="url(#clip0_340_1103)">
      <path d="M18.75 9.75C18.5391 9.75 18.3438 9.71094 18.1641 9.63281C17.9844 9.55469 17.8281 9.44922 17.6953 9.31641C17.5625 9.18359 17.4531 9.02344 17.3672 8.83594C17.2812 8.64844 17.2422 8.45312 17.25 8.25C17.25 8.03906 17.2891 7.84375 17.3672 7.66406C17.4453 7.48438 17.5508 7.32812 17.6836 7.19531C17.8164 7.0625 17.9766 6.95312 18.1641 6.86719C18.3516 6.78125 18.5469 6.74219 18.75 6.75C18.9609 6.75 19.1562 6.78906 19.3359 6.86719C19.5156 6.94531 19.6719 7.05078 19.8047 7.18359C19.9375 7.31641 20.0469 7.47656 20.1328 7.66406C20.2188 7.85156 20.2578 8.04688 20.25 8.25C20.25 8.46094 20.2109 8.65625 20.1328 8.83594C20.0547 9.01562 19.9492 9.17188 19.8164 9.30469C19.6836 9.4375 19.5234 9.54688 19.3359 9.63281C19.1484 9.71875 18.9531 9.75781 18.75 9.75ZM21 3H24V13.0664L13.5 23.5664L6.98438 17.0273C4.8125 14.8477 2.62891 12.6719 0.433594 10.5L10.9336 0H21V3ZM11.5664 1.5L2.56641 10.5L4.5 12.4336L13.9336 3H19.5V1.5H11.5664ZM22.5 12.4336V4.5H14.5664L5.56641 13.5L13.5 21.4336L22.5 12.4336Z"></path>
    </g>
    <defs>
      <clipPath id="clip0_340_1103">
        <rect width="24" height="24" fill="white"></rect>
      </clipPath>
    </defs>
  </symbol>
  <symbol xmlns="http://www.w3.org/2000/svg" viewBox="0 0 24 25" id="time">
    <g clip-path="url(#clip0_345_1134)">
      <path d="M12 24.7603C11.0312 24.7603 10.1016 24.6353 9.21094 24.3853C8.32031 24.1353 7.48438 23.7837 6.70312 23.3306C5.92188 22.8774 5.21484 22.3306 4.58203 21.6899C3.94922 21.0493 3.40234 20.3423 2.94141 19.5688C2.48047 18.7954 2.125 17.9595 1.875 17.061C1.625 16.1626 1.5 15.229 1.5 14.2603C1.5 13.2915 1.625 12.3618 1.875 11.4712C2.125 10.5806 2.47656 9.74463 2.92969 8.96338C3.38281 8.18213 3.92969 7.4751 4.57031 6.84229C5.21094 6.20947 5.91797 5.6626 6.69141 5.20166C7.46484 4.74072 8.30078 4.38525 9.19922 4.13525C10.0977 3.88525 11.0312 3.76025 12 3.76025C12.9688 3.76025 13.8984 3.88525 14.7891 4.13525C15.6797 4.38525 16.5156 4.73682 17.2969 5.18994C18.0781 5.64307 18.7852 6.18994 19.418 6.83057C20.0508 7.47119 20.5977 8.17822 21.0586 8.95166C21.5195 9.7251 21.875 10.561 22.125 11.4595C22.375 12.3579 22.5 13.2915 22.5 14.2603C22.5 15.229 22.375 16.1587 22.125 17.0493C21.875 17.9399 21.5234 18.7759 21.0703 19.5571C20.6172 20.3384 20.0703 21.0454 19.4297 21.6782C18.7891 22.311 18.082 22.8579 17.3086 23.3188C16.5352 23.7798 15.6992 24.1353 14.8008 24.3853C13.9023 24.6353 12.9688 24.7603 12 24.7603ZM12 5.26025C10.7578 5.26025 9.59375 5.49463 8.50781 5.96338C7.42188 6.43213 6.46875 7.07666 5.64844 7.89697C4.82812 8.71729 4.18359 9.67041 3.71484 10.7563C3.24609 11.8423 3.00781 13.0103 3 14.2603C3 15.5024 3.23438 16.6665 3.70312 17.7524C4.17188 18.8384 4.81641 19.7915 5.63672 20.6118C6.45703 21.4321 7.41016 22.0767 8.49609 22.5454C9.58203 23.0142 10.75 23.2524 12 23.2603C13.2422 23.2603 14.4062 23.0259 15.4922 22.5571C16.5781 22.0884 17.5312 21.4438 18.3516 20.6235C19.1719 19.8032 19.8164 18.8501 20.2852 17.7642C20.7539 16.6782 20.9922 15.5103 21 14.2603C21 13.0181 20.7656 11.854 20.2969 10.7681C19.8281 9.68213 19.1836 8.729 18.3633 7.90869C17.543 7.08838 16.5898 6.44385 15.5039 5.9751C14.418 5.50635 13.25 5.26807 12 5.26025ZM12 14.2603V8.26025H10.5V15.7603H16.5V14.2603H12Z"></path>
    </g>
    <defs>
      <clipPath id="clip0_345_1134">
        <rect width="24" height="24" fill="white" transform="translate(0 0.760254)"></rect>
      </clipPath>
    </defs>
  </symbol>
  <symbol xmlns="http://www.w3.org/2000/svg" viewBox="0 0 24 24" id="shop">
    <path d="M21 6V21C21 21.4141 20.9219 21.8008 20.7656 22.1602C20.6094 22.5195 20.3945 22.8359 20.1211 23.1094C19.8477 23.3828 19.5273 23.5977 19.1602 23.7539C18.793 23.9102 18.4062 23.9922 18 24H4.5C4.08594 24 3.69922 23.9219 3.33984 23.7656C2.98047 23.6094 2.66406 23.3945 2.39062 23.1211C2.11719 22.8477 1.90234 22.5312 1.74609 22.1719C1.58984 21.8125 1.50781 21.4219 1.5 21V6H4.5V4.5C4.5 3.88281 4.61719 3.30078 4.85156 2.75391C5.08594 2.20703 5.41016 1.73047 5.82422 1.32422C6.23828 0.917969 6.71484 0.597656 7.25391 0.363281C7.79297 0.128906 8.375 0.0078125 9 0C9.8125 0 10.5664 0.203125 11.2617 0.609375C11.957 0.203125 12.7031 0 13.5 0C14.1172 0 14.6992 0.117188 15.2461 0.351562C15.793 0.585938 16.2695 0.910156 16.6758 1.32422C17.082 1.73828 17.4023 2.21484 17.6367 2.75391C17.8711 3.29297 17.9922 3.875 18 4.5V6H21ZM16.5 4.5C16.5 4.09375 16.4219 3.70703 16.2656 3.33984C16.1094 2.97266 15.8945 2.65625 15.6211 2.39062C15.3477 2.125 15.0273 1.91016 14.6602 1.74609C14.293 1.58203 13.9062 1.5 13.5 1.5C13.1484 1.5 12.8164 1.55859 12.5039 1.67578C12.7305 1.95703 12.9102 2.23438 13.043 2.50781C13.1758 2.78125 13.2734 3.05469 13.3359 3.32812C13.3984 3.60156 13.4414 3.87891 13.4648 4.16016C13.4883 4.44141 13.5 4.74219 13.5 5.0625V6H16.5V4.5ZM6 6H12V4.5C12 4.09375 11.9219 3.70703 11.7656 3.33984C11.6094 2.97266 11.3945 2.65625 11.1211 2.39062C10.8477 2.125 10.5273 1.91016 10.1602 1.74609C9.79297 1.58203 9.40625 1.5 9 1.5C8.58594 1.5 8.19922 1.57812 7.83984 1.73438C7.48047 1.89062 7.16406 2.10547 6.89062 2.37891C6.61719 2.65234 6.40234 2.97266 6.24609 3.33984C6.08984 3.70703 6.00781 4.09375 6 4.5V6ZM15.3984 22.5C15.1328 22.0312 15 21.5312 15 21V7.5H3V21C3 21.2109 3.03906 21.4062 3.11719 21.5859C3.19531 21.7656 3.30078 21.9219 3.43359 22.0547C3.56641 22.1875 3.72656 22.2969 3.91406 22.3828C4.10156 22.4688 4.29688 22.5078 4.5 22.5H15.3984ZM19.5 7.5H16.5V21C16.5 21.2109 16.5391 21.4062 16.6172 21.5859C16.6953 21.7656 16.8008 21.9219 16.9336 22.0547C17.0664 22.1875 17.2266 22.2969 17.4141 22.3828C17.6016 22.4688 17.7969 22.5078 18 22.5C18.2109 22.5 18.4062 22.4609 18.5859 22.3828C18.7656 22.3047 18.9219 22.1992 19.0547 22.0664C19.1875 21.9336 19.2969 21.7734 19.3828 21.5859C19.4688 21.3984 19.5078 21.2031 19.5 21V7.5Z"></path>
  </symbol>
  <symbol xmlns="http://www.w3.org/2000/svg" viewBox="0 0 24 24" id="tools">
    <path d="M24 12.8203C24 13.125 23.9414 13.4219 23.8242 13.7109C23.707 14 23.5391 14.2539 23.3203 14.4727L14.918 22.875L10.5 23.9766L11.6016 19.5586L20.0039 11.168C20.2227 10.9492 20.4766 10.7891 20.7656 10.6875C21.0547 10.5859 21.3516 10.5352 21.6562 10.5352C21.9844 10.5352 22.2891 10.5898 22.5703 10.6992C22.8516 10.8086 23.1016 10.9687 23.3203 11.1797C23.5391 11.3906 23.7031 11.6289 23.8125 11.8945C23.9219 12.1601 23.9844 12.4687 24 12.8203ZM22.5 12.8203C22.5 12.5625 22.4219 12.3633 22.2656 12.2227C22.1094 12.082 21.9062 12.0117 21.6562 12.0117C21.5469 12.0117 21.4414 12.0273 21.3398 12.0586C21.2383 12.0898 21.1484 12.1445 21.0703 12.2227L12.9609 20.332L12.5625 21.9141L14.1445 21.5156L22.2539 13.418C22.418 13.2539 22.5 13.0547 22.5 12.8203ZM14.5078 14.0039C14.6875 13.707 14.8125 13.3867 14.8828 13.043C14.9531 12.6992 14.9922 12.3516 15 12C15 11.3828 14.8828 10.8008 14.6484 10.2539C14.4141 9.70702 14.0938 9.23046 13.6875 8.82421C13.2812 8.41796 12.8008 8.09374 12.2461 7.85156C11.6914 7.60937 11.1094 7.49218 10.5 7.49999C9.875 7.49999 9.28906 7.61718 8.74219 7.85156C8.19531 8.08593 7.71875 8.40624 7.3125 8.81249C6.90625 9.21874 6.58594 9.69531 6.35156 10.2422C6.11719 10.7891 6 11.375 6 12C6 12.625 6.11719 13.2109 6.35156 13.7578C6.58594 14.3047 6.90625 14.7812 7.3125 15.1875C7.71875 15.5937 8.19531 15.9141 8.74219 16.1484C9.28906 16.3828 9.875 16.5 10.5 16.5C10.8516 16.5 11.1953 16.4609 11.5312 16.3828C11.8672 16.3047 12.1914 16.1797 12.5039 16.0078L10.5117 18H10.5C9.66406 18 8.88281 17.8437 8.15625 17.5312C7.42969 17.2187 6.79688 16.793 6.25781 16.2539C5.71875 15.7148 5.28906 15.0781 4.96875 14.3437C4.64844 13.6094 4.49219 12.8281 4.5 12C4.5 11.1719 4.65625 10.3945 4.96875 9.66796C5.28125 8.9414 5.70703 8.30468 6.24609 7.75781C6.78516 7.21093 7.42188 6.78124 8.15625 6.46874C8.89062 6.15624 9.67188 5.99999 10.5 5.99999C11.3359 5.99999 12.1172 6.15624 12.8438 6.46874C13.5703 6.78124 14.207 7.21093 14.7539 7.75781C15.3008 8.30468 15.7266 8.94531 16.0312 9.67968C16.3359 10.4141 16.4922 11.1953 16.5 12.0234L14.5078 14.0039ZM9.32812 20.918L8.96484 22.3828C8.10547 22.2656 7.28906 22.0469 6.51562 21.7266C5.74219 21.4062 5.02344 21.0078 4.35938 20.5312C3.69531 20.0547 3.09375 19.5 2.55469 18.8672C2.01562 18.2344 1.55859 17.5547 1.18359 16.8281C0.808594 16.1016 0.519531 15.3281 0.316406 14.5078C0.113281 13.6875 0.0078125 12.8516 0 12C0 11.0391 0.125 10.1133 0.375 9.22265C0.625 8.33203 0.976562 7.49609 1.42969 6.71484C1.88281 5.93359 2.43359 5.22265 3.08203 4.58203C3.73047 3.9414 4.4375 3.39452 5.20312 2.9414C5.96875 2.48827 6.80469 2.13281 7.71094 1.87499C8.61719 1.61718 9.54688 1.49218 10.5 1.49999C11.6562 1.49999 12.7578 1.67577 13.8047 2.02734C14.8516 2.3789 15.8125 2.87499 16.6875 3.51562C17.5625 4.15624 18.3242 4.92968 18.9727 5.83593C19.6211 6.74218 20.1289 7.73828 20.4961 8.82421C20.2461 8.90234 20.0117 8.98828 19.793 9.08203C19.5742 9.17578 19.3555 9.30859 19.1367 9.48046C18.8555 8.51953 18.4336 7.64062 17.8711 6.84374C17.3086 6.04687 16.6484 5.36718 15.8906 4.80468C15.1328 4.24218 14.2969 3.80078 13.3828 3.48046C12.4688 3.16015 11.5078 2.99999 10.5 2.99999C9.67188 2.99999 8.875 3.10546 8.10938 3.3164C7.34375 3.52734 6.62891 3.83203 5.96484 4.23046C5.30078 4.6289 4.69141 5.09765 4.13672 5.63671C3.58203 6.17578 3.11328 6.78124 2.73047 7.45312C2.34766 8.12499 2.04688 8.84374 1.82812 9.60937C1.60938 10.375 1.5 11.1719 1.5 12C1.5 12.7422 1.58984 13.4648 1.76953 14.168C1.94922 14.8711 2.20312 15.5391 2.53125 16.1719C2.85938 16.8047 3.26172 17.3906 3.73828 17.9297C4.21484 18.4687 4.73828 18.9453 5.30859 19.3594C5.87891 19.7734 6.50781 20.1133 7.19531 20.3789C7.88281 20.6445 8.59375 20.8242 9.32812 20.918ZM12 12C12 12.2109 11.9609 12.4062 11.8828 12.5859C11.8047 12.7656 11.6992 12.9219 11.5664 13.0547C11.4336 13.1875 11.2734 13.2969 11.0859 13.3828C10.8984 13.4687 10.7031 13.5078 10.5 13.5C10.2891 13.5 10.0938 13.4609 9.91406 13.3828C9.73438 13.3047 9.57812 13.1992 9.44531 13.0664C9.3125 12.9336 9.20312 12.7734 9.11719 12.5859C9.03125 12.3984 8.99219 12.2031 9 12C9 11.7891 9.03906 11.5937 9.11719 11.4141C9.19531 11.2344 9.30078 11.0781 9.43359 10.9453C9.56641 10.8125 9.72656 10.7031 9.91406 10.6172C10.1016 10.5312 10.2969 10.4922 10.5 10.5C10.7109 10.5 10.9062 10.5391 11.0859 10.6172C11.2656 10.6953 11.4219 10.8008 11.5547 10.9336C11.6875 11.0664 11.7969 11.2266 11.8828 11.4141C11.9688 11.6016 12.0078 11.7969 12 12Z"></path>
  </symbol>
  <symbol fill="none" xmlns="http://www.w3.org/2000/svg" viewBox="0 0 20 21" id="vk">
    <g clip-path="url(#clip0_340_1659)">
      <path d="M19.894 15.0997C19.8698 15.0475 19.8472 15.0042 19.8262 14.9696C19.4792 14.3446 18.8161 13.5775 17.8373 12.6681L17.8166 12.6472L17.8063 12.637L17.7958 12.6266H17.7853C17.341 12.2031 17.0597 11.9183 16.9419 11.7726C16.7264 11.4949 16.6781 11.2138 16.7959 10.929C16.8791 10.7138 17.1918 10.2593 17.7331 9.56499C18.0178 9.19702 18.2433 8.9021 18.4099 8.67991C19.611 7.08314 20.1317 6.06279 19.9719 5.61844L19.9099 5.51461C19.8682 5.45209 19.7606 5.3949 19.5872 5.34275C19.4135 5.2907 19.1914 5.28209 18.9206 5.31678L15.9217 5.3375C15.8731 5.32028 15.8037 5.32189 15.7134 5.34275C15.6231 5.36361 15.5779 5.37408 15.5779 5.37408L15.5257 5.40016L15.4843 5.43149C15.4496 5.4522 15.4114 5.48864 15.3697 5.54072C15.3282 5.59262 15.2936 5.65353 15.2658 5.72294C14.9393 6.56294 14.5681 7.34392 14.1515 8.06586C13.8946 8.49635 13.6587 8.86942 13.4433 9.18531C13.2281 9.50109 13.0476 9.73375 12.9019 9.88288C12.756 10.0322 12.6244 10.1518 12.5061 10.2421C12.3881 10.3325 12.298 10.3707 12.2355 10.3567C12.173 10.3427 12.1141 10.3289 12.0583 10.315C11.9612 10.2525 11.8831 10.1675 11.8242 10.0599C11.765 9.95229 11.7252 9.81687 11.7044 9.65373C11.6836 9.49048 11.6714 9.35006 11.6679 9.232C11.6646 9.11408 11.6661 8.94729 11.6732 8.7321C11.6804 8.51681 11.6836 8.37113 11.6836 8.29476C11.6836 8.03092 11.6888 7.74457 11.6991 7.43565C11.7096 7.12673 11.7181 6.88196 11.7252 6.70164C11.7323 6.52114 11.7356 6.33017 11.7356 6.12884C11.7356 5.92751 11.7233 5.76962 11.6991 5.65503C11.6752 5.54057 11.6385 5.42948 11.5901 5.32178C11.5414 5.21418 11.4701 5.13095 11.3766 5.07187C11.2829 5.01285 11.1664 4.96602 11.0278 4.93123C10.6598 4.84796 10.1912 4.80292 9.62185 4.79592C8.33069 4.78206 7.50105 4.86543 7.13311 5.04593C6.98733 5.1222 6.85541 5.2264 6.73746 5.35821C6.61247 5.511 6.59504 5.59437 6.68527 5.60809C7.10186 5.67049 7.39677 5.81977 7.57035 6.05579L7.6329 6.18085C7.68155 6.27108 7.73013 6.43083 7.77875 6.65988C7.8273 6.88893 7.85863 7.1423 7.87241 7.41986C7.90706 7.92672 7.90706 8.36059 7.87241 8.72153C7.83765 9.0826 7.80483 9.3637 7.7735 9.56503C7.74217 9.76636 7.69534 9.9295 7.6329 10.0544C7.57035 10.1794 7.52873 10.2557 7.50787 10.2835C7.48704 10.3112 7.46968 10.3287 7.4559 10.3355C7.36566 10.3701 7.27182 10.3877 7.17469 10.3877C7.07742 10.3877 6.95947 10.339 6.82065 10.2418C6.68188 10.1446 6.53785 10.011 6.38856 9.8409C6.23928 9.67076 6.07093 9.433 5.88342 9.12758C5.69606 8.82215 5.50166 8.46119 5.30033 8.04467L5.13376 7.7426C5.02963 7.54828 4.88739 7.26532 4.70689 6.894C4.52628 6.52252 4.36664 6.1632 4.22786 5.81609C4.17238 5.67031 4.08904 5.55932 3.97799 5.48295L3.92587 5.45162C3.89122 5.4239 3.8356 5.39447 3.7593 5.3631C3.68289 5.33177 3.60316 5.3093 3.51978 5.29548L0.666572 5.3162C0.375011 5.3162 0.177184 5.38225 0.073018 5.51417L0.0313299 5.57657C0.0105041 5.61133 0 5.66684 0 5.74325C0 5.81963 0.0208258 5.91336 0.0625139 6.02435C0.47903 7.00327 0.931983 7.94736 1.42137 8.85677C1.91076 9.76617 2.33603 10.4987 2.69692 11.0538C3.05789 11.6092 3.42583 12.1334 3.80073 12.6262C4.17563 13.1191 4.42379 13.435 4.54521 13.5738C4.66677 13.7128 4.76225 13.8167 4.83166 13.8861L5.09204 14.136C5.25865 14.3027 5.5033 14.5022 5.82612 14.7348C6.14901 14.9674 6.50648 15.1965 6.89871 15.4223C7.291 15.6477 7.74739 15.8317 8.2681 15.9739C8.78875 16.1164 9.2955 16.1735 9.78842 16.1459H10.986C11.2288 16.125 11.4128 16.0486 11.5379 15.9168L11.5793 15.8646C11.6072 15.8232 11.6333 15.7588 11.6573 15.6722C11.6817 15.5854 11.6938 15.4898 11.6938 15.3858C11.6867 15.0874 11.7094 14.8184 11.7614 14.5789C11.8133 14.3395 11.8724 14.159 11.9386 14.0374C12.0047 13.916 12.0793 13.8135 12.1624 13.7304C12.2456 13.6471 12.3049 13.5967 12.3397 13.5793C12.3743 13.5619 12.4019 13.55 12.4227 13.5429C12.5893 13.4874 12.7854 13.5412 13.0112 13.7044C13.2369 13.8676 13.4486 14.069 13.6465 14.3084C13.8444 14.548 14.0821 14.8169 14.3597 15.1153C14.6376 15.4139 14.8805 15.6358 15.0886 15.7818L15.2968 15.9068C15.4359 15.9902 15.6164 16.0665 15.8386 16.136C16.0604 16.2053 16.2547 16.2227 16.4215 16.188L19.0872 16.1464C19.3509 16.1464 19.556 16.1028 19.7015 16.0161C19.8474 15.9294 19.934 15.8338 19.9619 15.7298C19.9898 15.6257 19.9913 15.5076 19.9672 15.3756C19.9425 15.2439 19.9182 15.1518 19.894 15.0997Z" fill="#111111"></path>
    </g>
    <defs>
      <clipPath id="clip0_340_1659">
        <rect width="20" height="20" fill="white" transform="translate(0 0.5)"></rect>
      </clipPath>
    </defs>
  </symbol>
  <symbol fill="none" xmlns="http://www.w3.org/2000/svg" viewBox="0 0 33 23" id="burger">
    <path d="M31.9528 14C29.9801 14 28.9572 12.9545 28.1292 12.1136C27.3255 11.2955 26.814 10.8182 25.7424 10.8182C24.6708 10.8182 24.1594 11.2955 23.3557 12.1136C22.5277 12.9545 21.5048 14 19.5321 14C17.5594 14 16.5365 12.9545 15.7085 12.1136C14.9048 11.2955 14.3934 10.8182 13.3218 10.8182C12.2502 10.8182 11.7387 11.2955 10.9351 12.1136C10.107 12.9545 9.10849 14 7.11144 14C5.13875 14 4.11587 12.9545 3.28782 12.1136C2.5572 11.2955 2.04576 10.8182 0.97417 10.8182C0.438376 10.8182 0 10.4091 0 9.90909C0 9.40909 0.438376 9 0.97417 9C2.94686 9 3.96974 10.0455 4.79779 10.8864C5.60148 11.7045 6.11292 12.1818 7.1845 12.1818C8.25609 12.1818 8.76753 11.7045 9.57122 10.8864C10.3993 10.0455 11.4221 9 13.3948 9C15.3675 9 16.3904 10.0455 17.2185 10.8864C18.0221 11.7045 18.5336 12.1818 19.6052 12.1818C20.6768 12.1818 21.1882 11.7045 21.9919 10.8864C22.8199 10.0455 23.8428 9 25.8155 9C27.7882 9 28.8111 10.0455 29.6391 10.8864C30.4428 11.7045 30.9542 12.1818 32.0258 12.1818C32.5616 12.1818 33 12.5909 33 13.0909C33 13.5909 32.4886 14 31.9528 14Z" fill="#12919C"></path>
    <path d="M31.9528 5C29.9801 5 28.9572 3.95455 28.1292 3.11364C27.3255 2.29545 26.814 1.81818 25.7424 1.81818C24.6708 1.81818 24.1594 2.29545 23.3557 3.11364C22.5277 3.95455 21.5048 5 19.5321 5C17.5594 5 16.5365 3.95455 15.7085 3.11364C14.9048 2.29545 14.3934 1.81818 13.3218 1.81818C12.2502 1.81818 11.7387 2.29545 10.9351 3.11364C10.107 3.95455 9.10849 5 7.11144 5C5.13875 5 4.11587 3.95455 3.28782 3.11364C2.5572 2.29545 2.04576 1.81818 0.97417 1.81818C0.438376 1.81818 0 1.40909 0 0.909091C0 0.409091 0.438376 0 0.97417 0C2.94686 0 3.96974 1.04545 4.79779 1.88636C5.60148 2.70455 6.11292 3.18182 7.1845 3.18182C8.25609 3.18182 8.76753 2.70455 9.57122 1.88636C10.3993 1.04545 11.4221 0 13.3948 0C15.3675 0 16.3904 1.04545 17.2185 1.88636C18.0221 2.70455 18.5336 3.18182 19.6052 3.18182C20.6768 3.18182 21.1882 2.70455 21.9919 1.88636C22.8199 1.04545 23.8428 0 25.8155 0C27.7882 0 28.8111 1.04545 29.6391 1.88636C30.4428 2.70455 30.9542 3.18182 32.0258 3.18182C32.5616 3.18182 33 3.59091 33 4.09091C33 4.59091 32.4886 5 31.9528 5Z" fill="#12919C"></path>
    <path d="M31.9528 23C29.9801 23 28.9572 21.9545 28.1292 21.1136C27.3255 20.2955 26.814 19.8182 25.7424 19.8182C24.6708 19.8182 24.1594 20.2955 23.3557 21.1136C22.5277 21.9545 21.5048 23 19.5321 23C17.5594 23 16.5365 21.9545 15.7085 21.1136C14.9048 20.2955 14.3934 19.8182 13.3218 19.8182C12.2502 19.8182 11.7387 20.2955 10.9351 21.1136C10.107 21.9545 9.10849 23 7.11144 23C5.13875 23 4.11587 21.9545 3.28782 21.1136C2.5572 20.2955 2.04576 19.8182 0.97417 19.8182C0.438376 19.8182 0 19.4091 0 18.9091C0 18.4091 0.438376 18 0.97417 18C2.94686 18 3.96974 19.0455 4.79779 19.8864C5.60148 20.7045 6.11292 21.1818 7.1845 21.1818C8.25609 21.1818 8.76753 20.7045 9.57122 19.8864C10.3993 19.0455 11.4221 18 13.3948 18C15.3675 18 16.3904 19.0455 17.2185 19.8864C18.0221 20.7045 18.5336 21.1818 19.6052 21.1818C20.6768 21.1818 21.1882 20.7045 21.9919 19.8864C22.8199 19.0455 23.8428 18 25.8155 18C27.7882 18 28.8111 19.0455 29.6391 19.8864C30.4428 20.7045 30.9542 21.1818 32.0258 21.1818C32.5616 21.1818 33 21.5909 33 22.0909C33 22.5909 32.4886 23 31.9528 23Z" fill="#12919C"></path>
  </symbol>
  <symbol xmlns="http://www.w3.org/2000/svg" viewBox="0 0 24 24" id="cacke">
    <path d="M22.5 22.5V24H0V22.5H1.5V15.75C1.5 15.2344 1.59766 14.75 1.79297 14.2969C1.98828 13.8438 2.25391 13.4492 2.58984 13.1133C2.92578 12.7773 3.32422 12.5078 3.78516 12.3047C4.24609 12.1016 4.73438 12 5.25 12H10.5V7.875C10.5 7.80469 10.5273 7.74609 10.582 7.69922C10.6367 7.65234 10.707 7.61328 10.793 7.58203C10.8789 7.55078 10.9648 7.53125 11.0508 7.52344C11.1367 7.51562 11.2031 7.50781 11.25 7.5C11.2969 7.5 11.3633 7.50391 11.4492 7.51172C11.5352 7.51953 11.6172 7.53906 11.6953 7.57031C11.7734 7.60156 11.8438 7.64062 11.9062 7.6875C11.9688 7.73438 12 7.79688 12 7.875V12H17.25C17.7656 12 18.25 12.0977 18.7031 12.293C19.1562 12.4883 19.5508 12.7578 19.8867 13.1016C20.2227 13.4453 20.4922 13.8438 20.6953 14.2969C20.8984 14.75 21 15.2344 21 15.75V22.5H22.5ZM5.25 13.5C4.96094 13.5 4.6875 13.5508 4.42969 13.6523C4.17188 13.7539 3.94531 13.8945 3.75 14.0742C3.55469 14.2539 3.39062 14.4648 3.25781 14.707C3.125 14.9492 3.04297 15.2148 3.01172 15.5039C3.30078 15.8242 3.63672 16.0703 4.01953 16.2422C4.40234 16.4141 4.8125 16.5 5.25 16.5C5.76562 16.5 6.21094 16.3984 6.58594 16.1953C6.96094 15.9922 7.31641 15.6953 7.65234 15.3047C7.73828 15.2109 7.82422 15.1367 7.91016 15.082C7.99609 15.0273 8.10938 15 8.25 15C8.38281 15 8.49219 15.0273 8.57812 15.082C8.66406 15.1367 8.75391 15.2109 8.84766 15.3047C9.17578 15.6875 9.52734 15.9805 9.90234 16.1836C10.2773 16.3867 10.7266 16.4922 11.25 16.5C11.7656 16.5 12.2109 16.3984 12.5859 16.1953C12.9609 15.9922 13.3164 15.6953 13.6523 15.3047C13.7383 15.2109 13.8242 15.1367 13.9102 15.082C13.9961 15.0273 14.1094 15 14.25 15C14.3828 15 14.4922 15.0273 14.5781 15.082C14.6641 15.1367 14.7539 15.2109 14.8477 15.3047C15.1758 15.6875 15.5273 15.9805 15.9023 16.1836C16.2773 16.3867 16.7266 16.4922 17.25 16.5C17.6797 16.5 18.0859 16.4141 18.4688 16.2422C18.8516 16.0703 19.1914 15.8242 19.4883 15.5039C19.457 15.2227 19.3789 14.9609 19.2539 14.7188C19.1289 14.4766 18.9648 14.2617 18.7617 14.0742C18.5586 13.8867 18.3281 13.7461 18.0703 13.6523C17.8125 13.5586 17.5391 13.5078 17.25 13.5H5.25ZM3 22.5H19.5V17.4023C19.125 17.5898 18.7617 17.7344 18.4102 17.8359C18.0586 17.9375 17.6719 17.9922 17.25 18C16.6875 18 16.1523 17.9062 15.6445 17.7188C15.1367 17.5312 14.6719 17.2461 14.25 16.8633C13.8281 17.2383 13.3633 17.5195 12.8555 17.707C12.3477 17.8945 11.8125 17.9922 11.25 18C10.6875 18 10.1523 17.9062 9.64453 17.7188C9.13672 17.5312 8.67188 17.2461 8.25 16.8633C7.82812 17.2383 7.36328 17.5195 6.85547 17.707C6.34766 17.8945 5.8125 17.9922 5.25 18C4.82812 18 4.44141 17.9492 4.08984 17.8477C3.73828 17.7461 3.375 17.5977 3 17.4023V22.5ZM11.25 6C11.0469 6 10.8711 5.92578 10.7227 5.77734C10.5742 5.62891 10.5 5.45312 10.5 5.25C10.5 5.15625 10.5312 5.03516 10.5938 4.88672C10.6562 4.73828 10.7266 4.58203 10.8047 4.41797C10.8828 4.25391 10.9648 4.09766 11.0508 3.94922C11.1367 3.80078 11.2031 3.68359 11.25 3.59766C11.2969 3.68359 11.3594 3.80078 11.4375 3.94922C11.5156 4.09766 11.5977 4.25391 11.6836 4.41797C11.7695 4.58203 11.8438 4.73828 11.9062 4.88672C11.9688 5.03516 12 5.15625 12 5.25C12 5.45312 11.9258 5.62891 11.7773 5.77734C11.6289 5.92578 11.4531 6 11.25 6Z"></path>
  </symbol>
  <symbol xmlns="http://www.w3.org/2000/svg" viewBox="0 0 24 24" id="cinema">
    <path d="M24 18.0938L18 15.0938V18H0V6H18V8.90625L24 5.90625V18.0938ZM16.5 7.5H1.5V16.5H16.5V7.5ZM22.5 8.33203L18 10.5938V13.4062L22.5 15.668V8.33203Z"></path>
  </symbol>
</svg>